<?xml version="1.0" encoding="UTF-8"?>
<svg version="1.1" xmlns="http://www.w3.org/2000/svg" width="500" height="500">
<path d="M0 0 C14.29987923 -0.04683882 28.59974646 -0.08191364 42.89968681 -0.10362434 C49.54025556 -0.11404619 56.18074999 -0.12817621 62.82128906 -0.15087891 C69.23387279 -0.17266422 75.64640692 -0.18458066 82.05902481 -0.18975449 C84.50134181 -0.19344002 86.9436562 -0.2006369 89.385952 -0.21146011 C92.81579125 -0.22605048 96.2454275 -0.22797477 99.67529297 -0.22705078 C100.67727219 -0.23424133 101.6792514 -0.24143188 102.71159363 -0.24884033 C111.7579267 -0.22259693 119.81434435 1.08512121 128 5 C128 5.66 128 6.32 128 7 C129.2065625 7.4021875 129.2065625 7.4021875 130.4375 7.8125 C131.283125 8.204375 132.12875 8.59625 133 9 C133.33 9.99 133.66 10.98 134 12 C134.66 12 135.32 12 136 12 C136.98414433 13.91411557 137.96213349 15.8313967 138.9375 17.75 C139.48277344 18.81734375 140.02804687 19.8846875 140.58984375 20.984375 C144.34015518 29.00443157 143.95132415 37.79734334 141.4375 46.1875 C137.58369651 56.45092803 130.54127649 63.63759805 121 69 C119.68 69 118.36 69 117 69 C117 69.66 117 70.32 117 71 C117.66 71 118.32 71 119 71 C120.37212301 72.53195272 121.6715446 74.12921081 122.9375 75.75 C126.92771453 80.76051368 131.12098493 85.48289701 135.54467773 90.11425781 C139 93.78889698 139 93.78889698 139 96 C139.66 96 140.32 96 141 96 C142.29041914 97.44764262 143.50767134 98.96089149 144.6875 100.5 C147.89293931 104.62546485 151.21763082 108.55849072 154.75 112.40625 C156 114 156 114 156 116 C156.66 116 157.32 116 158 116 C159.60634015 117.73391951 161.1375287 119.538091 162.625 121.375 C163.44226563 122.37273437 164.25953125 123.37046875 165.1015625 124.3984375 C167 127 167 127 167 129 C163.23480404 128.39945799 160.25927226 127.30638341 156.875 125.5625 C156.02679688 125.13066406 155.17859375 124.69882812 154.3046875 124.25390625 C152 123 152 123 149 121 C149 120.34 149 119.68 149 119 C148.319375 118.773125 147.63875 118.54625 146.9375 118.3125 C143.3011291 116.68773854 139.97170737 114.67196743 137 112 C137 111.34 137 110.68 137 110 C136.01 109.7215625 136.01 109.7215625 135 109.4375 C131.40234696 107.71362459 128.93367454 105.42013274 126.00390625 102.74609375 C124.23133544 101.20157298 122.48738197 99.93255017 120.5 98.6875 C119.675 98.130625 118.85 97.57375 118 97 C118 96.34 118 95.68 118 95 C117.44828125 94.7421875 116.8965625 94.484375 116.328125 94.21875 C113.65685825 92.82036875 111.23148091 91.21236695 108.75 89.5 C107.85796875 88.8915625 106.9659375 88.283125 106.046875 87.65625 C105.37140625 87.1096875 104.6959375 86.563125 104 86 C104 85.34 104 84.68 104 84 C103.46375 83.7525 102.9275 83.505 102.375 83.25 C99.4176018 81.69347463 96.70275949 79.96564327 94 78 C94 77.34 94 76.68 94 76 C93.443125 75.731875 92.88625 75.46375 92.3125 75.1875 C89.78774666 73.89100504 87.36285516 72.57523677 85 71 C85 70.34 85 69.68 85 69 C84.46375 68.7525 83.9275 68.505 83.375 68.25 C80.4176018 66.69347463 77.70275949 64.96564327 75 63 C75 62.34 75 61.68 75 61 C74.44957031 60.75894531 73.89914063 60.51789063 73.33203125 60.26953125 C70.47061526 58.71180898 68.17984044 56.78501423 65.6875 54.6875 C62.4712433 52.00584897 59.2727434 49.42111489 55.8125 47.0625 C54.884375 46.381875 53.95625 45.70125 53 45 C53 44.34 53 43.68 53 43 C52.34 42.814375 51.68 42.62875 51 42.4375 C47.40234696 40.71362459 44.93367454 38.42013274 42.00390625 35.74609375 C40.23133544 34.20157298 38.48738197 32.93255017 36.5 31.6875 C35.675 31.130625 34.85 30.57375 34 30 C34 29.34 34 28.68 34 28 C33.46890625 27.76925781 32.9378125 27.53851563 32.390625 27.30078125 C29.24551969 25.58947395 26.53638466 23.41621472 23.75 21.1875 C23.15171387 20.7119165 22.55342773 20.23633301 21.93701172 19.74633789 C20.64561033 18.71756907 19.3557918 17.68681086 18.06738281 16.65429688 C15.89172577 14.91336016 13.70755243 13.18343462 11.5234375 11.453125 C10.05677815 10.28189275 8.5906218 9.11003032 7.125 7.9375 C6.41698242 7.37764404 5.70896484 6.81778809 4.97949219 6.2409668 C4.32883789 5.71672119 3.67818359 5.19247559 3.0078125 4.65234375 C2.42660645 4.18820068 1.84540039 3.72405762 1.24658203 3.24584961 C0.83520996 2.83471924 0.42383789 2.42358887 0 2 C0 1.34 0 0.68 0 0 Z M46 19 C46.78028564 19.62036133 47.56057129 20.24072266 48.36450195 20.87988281 C51.42830857 23.34455133 54.32340246 25.96355559 57.23046875 28.609375 C58.88699054 30.20596607 58.88699054 30.20596607 61 30 C61 30.66 61 31.32 61 32 C62.90519002 33.60981172 64.80255662 35.09503268 66.8125 36.5625 C67.35970703 36.97435547 67.90691406 37.38621094 68.47070312 37.81054688 C70.96993101 39.66149019 73.02962285 41.00987428 76 42 C76 42.66 76 43.32 76 44 C78.14428179 45.749958 78.14428179 45.749958 80.8125 47.5 C81.70582031 48.1084375 82.59914062 48.716875 83.51953125 49.34375 C89.10020358 53.0700572 92.1565238 53.39486977 98.75 53.4375 C99.63171875 53.47037109 100.5134375 53.50324219 101.421875 53.53710938 C107.88725145 53.5900254 111.18847793 52.37112319 116 48 C116 47.34 116 46.68 116 46 C116.66 46 117.32 46 118 46 C121.71930002 40.55618025 123.66356527 36.66626217 122.58984375 30.04296875 C121.40662734 25.94480859 120.00013652 23.53151204 116.31860352 21.28051758 C109.81199234 17.89868604 103.05696382 18.37472774 95.90234375 18.51171875 C94.45790337 18.52106228 93.01344698 18.5281711 91.56898499 18.53315735 C87.79569551 18.55210677 84.02339224 18.60109911 80.25048828 18.65667725 C76.38913305 18.70813345 72.52761603 18.73072719 68.66601562 18.75585938 C61.11023099 18.80923332 53.55525449 18.89439474 46 19 Z " fill="#C10E1B" transform="translate(150,146)"/>
<path d="M0 0 C0.99 0 1.98 0 3 0 C3 0.66 3 1.32 3 2 C3.66 2 4.32 2 5 2 C5 2.66 5 3.32 5 4 C6.11181641 4.38478516 6.11181641 4.38478516 7.24609375 4.77734375 C10.12570491 6.05580941 11.79448312 7.39936251 14.0625 9.5625 C18.67900795 13.82809096 23.59079398 17.4620671 28.69140625 21.1171875 C29.45324219 21.73851562 30.21507812 22.35984375 31 23 C31 23.66 31 24.32 31 25 C31.88945312 25.42925781 31.88945312 25.42925781 32.796875 25.8671875 C42.44568626 30.8284557 45.77913016 39.57333891 50 49 C50.26782288 49.5978833 50.53564575 50.1957666 50.81158447 50.81176758 C54.25730245 58.51489028 57.66125653 66.23661132 61.0234375 73.9765625 C61.54856934 75.18393066 62.07370117 76.39129883 62.61474609 77.63525391 C63.88681525 80.72507716 64.98826557 83.8167084 66 87 C62.65750371 86.40312566 60.53563658 85.26396123 58 83 C58 82.34 58 81.68 58 81 C57.34 81 56.68 81 56 81 C56 80.34 56 79.68 56 79 C55.15888672 78.60167969 55.15888672 78.60167969 54.30078125 78.1953125 C40.23926663 70.89000949 33.74684503 57.17233581 26 44 C24.73925934 41.88997379 23.4732927 39.78317858 22.20654297 37.67675781 C21.49436203 36.49032546 20.78497561 35.30221043 20.07861328 34.11230469 C17.20691776 29.28369315 14.17018082 24.57408317 11.10546875 19.8671875 C8.57382641 15.95710645 6.23607255 11.99015292 4.0703125 7.8671875 C2.99744904 5.89743945 2.99744904 5.89743945 1.3671875 3.8828125 C0 2 0 2 0 0 Z " fill="#930C18" transform="translate(182,186)"/>
<path d="M0 0 C1.03488808 -0.00717545 1.03488808 -0.00717545 2.09068298 -0.01449585 C3.54037779 -0.01787951 4.9901505 -0.00878451 6.43969727 0.01220703 C8.65098752 0.03904604 10.85722344 0.01239674 13.06835938 -0.01953125 C14.48308404 -0.01622767 15.89780558 -0.00982247 17.3125 0 C18.58875244 0.00563965 19.86500488 0.0112793 21.17993164 0.01708984 C25.41547438 0.82071183 26.8681864 2.40866648 29.58984375 5.6640625 C30.08484375 6.1590625 30.08484375 6.1590625 30.58984375 6.6640625 C30.88046636 10.86521472 30.90390104 15.07232258 30.93994141 19.28222656 C30.95646128 20.69645693 30.98369972 22.11060516 31.02197266 23.52441406 C31.07696206 25.56619444 31.0986482 27.60601469 31.11328125 29.6484375 C31.14301025 31.48486816 31.14301025 31.48486816 31.17333984 33.35839844 C30.43361785 37.5491247 28.79425235 38.973621 25.58984375 41.6640625 C25.25984375 41.9940625 24.92984375 42.3240625 24.58984375 42.6640625 C19.96023574 42.95553447 15.32784702 42.97813192 10.68994141 43.01416016 C9.13021897 43.03068745 7.57057126 43.0579354 6.01123047 43.09619141 C3.76099414 43.15112182 1.51253637 43.17285906 -0.73828125 43.1875 C-1.43117249 43.21016937 -2.12406372 43.23283875 -2.83795166 43.25619507 C-6.51137388 43.24026185 -8.32478929 42.72441925 -11.34594727 40.58837891 C-13.92474953 36.93505028 -14.06774212 34.79985391 -14.109375 30.3515625 C-14.1165303 29.66022217 -14.12368561 28.96888184 -14.13105774 28.2565918 C-14.13881118 26.80095706 -14.13387219 25.34520539 -14.11694336 23.88964844 C-14.0976989 21.66898356 -14.1371285 19.45457104 -14.18164062 17.234375 C-14.181931 15.81510046 -14.17879059 14.39582022 -14.171875 12.9765625 C-14.17147217 11.69394531 -14.17106934 10.41132813 -14.1706543 9.08984375 C-13.34958019 5.39118827 -12.26505322 3.78260941 -9.17759705 1.56451416 C-6.13474766 0.0142847 -3.37683042 0.01490874 0 0 Z M-4.41015625 11.6640625 C-4.85885286 14.95649854 -4.73423867 18.28203993 -4.72265625 21.6015625 C-4.73876953 22.52130859 -4.75488281 23.44105469 -4.77148438 24.38867188 C-4.77245117 25.71415039 -4.77245117 25.71415039 -4.7734375 27.06640625 C-4.77641846 27.87585693 -4.77939941 28.68530762 -4.7824707 29.51928711 C-4.55682086 31.72056994 -4.55682086 31.72056994 -3.17480469 33.42871094 C-0.91514646 35.01059675 0.4430477 35.03745072 3.1875 35.02734375 C4.51297852 35.02637695 4.51297852 35.02637695 5.86523438 35.02539062 C7.24485352 35.0012207 7.24485352 35.0012207 8.65234375 34.9765625 C10.03776367 34.98139648 10.03776367 34.98139648 11.45117188 34.98632812 C16.54912319 35.2473714 16.54912319 35.2473714 20.58984375 32.6640625 C20.86749791 30.33589045 20.86749791 30.33589045 20.78515625 27.65625 C20.77871094 26.67011719 20.77226562 25.68398438 20.765625 24.66796875 C20.74886719 23.63542969 20.73210937 22.60289062 20.71484375 21.5390625 C20.70582031 20.49878906 20.69679688 19.45851563 20.6875 18.38671875 C20.66388122 15.81227158 20.63094524 13.23828038 20.58984375 10.6640625 C16.81945318 8.77886721 12.2382978 9.47930256 8.08984375 9.4765625 C7.11402344 9.46431641 6.13820312 9.45207031 5.1328125 9.43945312 C4.20082031 9.43751953 3.26882812 9.43558594 2.30859375 9.43359375 C1.0237207 9.42743042 1.0237207 9.42743042 -0.28710938 9.42114258 C-2.62666894 9.46581517 -2.62666894 9.46581517 -4.41015625 11.6640625 Z " fill="#E8E8E8" transform="translate(154.41015625,295.3359375)"/>
<path d="M0 0 C5.671875 -0.0825 11.34375 -0.165 17.1875 -0.25 C18.96922607 -0.28641602 20.75095215 -0.32283203 22.58666992 -0.36035156 C24.00959063 -0.37204139 25.43252477 -0.38223253 26.85546875 -0.390625 C27.58560181 -0.41108887 28.31573486 -0.43155273 29.06799316 -0.45263672 C32.72744935 -0.45512826 34.8126999 -0.11676576 37.9465332 1.83691406 C41.55128457 5.63409598 41.15323384 9.55907758 41.125 14.5 C41.13080078 15.51513672 41.13080078 15.51513672 41.13671875 16.55078125 C41.13062416 19.64073767 40.9844023 22.04679311 40 25 C39.34 25 38.68 25 38 25 C38 25.66 38 26.32 38 27 C36.35 27.33 34.7 27.66 33 28 C33.495 29.98 33.495 29.98 34 32 C34.66 32 35.32 32 36 32 C37.54296875 33.64453125 37.54296875 33.64453125 39.1875 35.8125 C40.01314453 36.87404297 40.01314453 36.87404297 40.85546875 37.95703125 C41.23316406 38.63121094 41.61085937 39.30539062 42 40 C41.67 40.99 41.34 41.98 41 43 C37.13617741 43.24148891 33.73311231 43.07438378 30 42 C27.54273118 39.82693487 25.86148419 37.54303947 23.9921875 34.8515625 C21.8659365 31.80810519 19.51968872 29.16127566 17 26.4375 C13 22.10641892 13 22.10641892 13 21 C18.61 21 24.22 21 30 21 C30 20.34 30 19.68 30 19 C30.66 19 31.32 19 32 19 C32 16.03 32 13.06 32 10 C25.07 10 18.14 10 11 10 C10.67 20.56 10.34 31.12 10 42 C6.7 42 3.4 42 0 42 C0 28.14 0 14.28 0 0 Z " fill="#DFDFDF" transform="translate(91,296)"/>
<path d="M0 0 C0.72822464 0.0028299 1.45644928 0.00565979 2.20674133 0.00857544 C4.52992262 0.01975993 6.85271672 0.04486084 9.17578125 0.0703125 C10.75194755 0.08034456 12.3281199 0.08947002 13.90429688 0.09765625 C17.76577392 0.11969354 21.62696196 0.15421109 25.48828125 0.1953125 C25.48828125 3.1653125 25.48828125 6.1353125 25.48828125 9.1953125 C15.58828125 9.5253125 5.68828125 9.8553125 -4.51171875 10.1953125 C-4.51171875 12.5053125 -4.51171875 14.8153125 -4.51171875 17.1953125 C4.72828125 17.1953125 13.96828125 17.1953125 23.48828125 17.1953125 C23.48828125 19.8353125 23.48828125 22.4753125 23.48828125 25.1953125 C14.24828125 25.1953125 5.00828125 25.1953125 -4.51171875 25.1953125 C-4.51171875 27.5053125 -4.51171875 29.8153125 -4.51171875 32.1953125 C-1.20959595 33.2960201 1.42911404 33.40158322 4.90625 33.51171875 C6.15986328 33.55361328 7.41347656 33.59550781 8.70507812 33.63867188 C10.01541016 33.67798828 11.32574219 33.71730469 12.67578125 33.7578125 C14.01108103 33.80102242 15.34636777 33.8446375 16.68164062 33.88867188 C19.95041422 33.99487752 23.21926458 34.09692247 26.48828125 34.1953125 C26.48828125 36.8353125 26.48828125 39.4753125 26.48828125 42.1953125 C21.5953896 42.3192073 16.70341698 42.40978759 11.80932617 42.4699707 C10.14575286 42.49506597 8.48228929 42.52915046 6.8190918 42.57250977 C4.42338972 42.6333871 2.02914874 42.66157019 -0.3671875 42.68359375 C-1.10696335 42.70940018 -1.8467392 42.7352066 -2.6089325 42.76179504 C-6.6242992 42.76396028 -8.30590991 42.36333259 -11.45825195 39.78979492 C-15.76273725 34.35123051 -14.77199105 28.66527645 -14.82421875 21.9453125 C-14.85322266 20.71683594 -14.88222656 19.48835938 -14.91210938 18.22265625 C-14.99200545 6.87741391 -14.99200545 6.87741391 -10.51171875 2.1953125 C-6.86867011 -0.23338659 -4.20449536 -0.06144425 0 0 Z " fill="#E3E3E3" transform="translate(256.51171875,295.8046875)"/>
<path d="M0 0 C4.62 0 9.24 0 14 0 C18.47319402 8.7372517 22.7537876 17.50575349 26.61962891 26.5300293 C28.11863767 30.02145233 29.6818291 33.44284393 31.4375 36.8125 C33 40 33 40 33 43 C23.16646345 43.11868061 23.16646345 43.11868061 20.37890625 40.4453125 C19.0015016 38.01341126 18 35.82866073 18 33 C10.74 33.33 3.48 33.66 -4 34 C-5.32 36.64 -6.64 39.28 -8 42 C-11.63 42 -15.26 42 -19 42 C-17.39224949 36.78318454 -15.24726684 31.90021427 -13 26.9375 C-9.8725777 20.02305799 -9.8725777 20.02305799 -7 13 C-6.34 13 -5.68 13 -5 13 C-4.9175 12.34 -4.835 11.68 -4.75 11 C-3.74073023 6.96292093 -1.93519598 3.68311492 0 0 Z M6 10 C5.36967867 11.20556604 4.7460503 12.41463189 4.125 13.625 C3.77695312 14.29789062 3.42890625 14.97078125 3.0703125 15.6640625 C1.83685333 18.35606463 0.93639185 21.19082445 0 24 C4.62 24 9.24 24 14 24 C13.34 22.02 12.68 20.04 12 18 C11.34 18 10.68 18 10 18 C9.855625 17.236875 9.71125 16.47375 9.5625 15.6875 C9.0367406 12.91827092 9.0367406 12.91827092 8 10 C7.34 10 6.68 10 6 10 Z " fill="#E1E1E1" transform="translate(359,296)"/>
<path d="M0 0 C0.94594025 -0.0030011 1.89188049 -0.0060022 2.8664856 -0.00909424 C3.89136078 0.00325256 4.91623596 0.01559937 5.97216797 0.02832031 C7.03740692 0.03019348 8.10264587 0.03206665 9.20016479 0.03399658 C11.46485503 0.04072979 13.7295334 0.0546692 15.99414062 0.07519531 C19.40229537 0.10588645 22.80998348 0.11612478 26.21826172 0.12207031 C38.28983425 0.16583432 50.30013954 0.45659083 62.33935547 1.35644531 C62.33935547 1.68644531 62.33935547 2.01644531 62.33935547 2.35644531 C41.21935547 2.68644531 20.09935547 3.01644531 -1.66064453 3.35644531 C4.77435547 8.30644531 4.77435547 8.30644531 11.33935547 13.35644531 C11.33935547 14.01644531 11.33935547 14.67644531 11.33935547 15.35644531 C11.88076172 15.60394531 12.42216797 15.85144531 12.97998047 16.10644531 C15.86764037 17.63633135 18.43711565 19.44795529 21.08935547 21.35644531 C22.07419922 22.05769531 23.05904297 22.75894531 24.07373047 23.48144531 C24.82138672 24.10019531 25.56904297 24.71894531 26.33935547 25.35644531 C26.33935547 26.01644531 26.33935547 26.67644531 26.33935547 27.35644531 C26.92716797 27.62199219 27.51498047 27.88753906 28.12060547 28.16113281 C30.33935547 29.35644531 30.33935547 29.35644531 31.99560547 30.86425781 C37.433243 35.63371107 42.64028499 35.95022195 49.58935547 35.98144531 C50.46527344 35.99191895 51.34119141 36.00239258 52.24365234 36.01318359 C57.6089489 35.89703829 60.35424262 35.23343495 64.33935547 31.35644531 C64.99935547 31.35644531 65.65935547 31.35644531 66.33935547 31.35644531 C66.33935547 30.69644531 66.33935547 30.03644531 66.33935547 29.35644531 C66.99935547 29.35644531 67.65935547 29.35644531 68.33935547 29.35644531 C68.60748047 28.61394531 68.87560547 27.87144531 69.15185547 27.10644531 C70.28164968 24.49007977 71.54828749 22.5545742 73.33935547 20.35644531 C74.33935547 23.35644531 74.33935547 23.35644531 72.90576172 26.71191406 C72.2478674 27.99447571 71.57945804 29.27168588 70.90185547 30.54394531 C70.56347656 31.19814453 70.22509766 31.85234375 69.87646484 32.52636719 C69.03966449 34.1410383 68.19065801 35.74937294 67.33935547 37.35644531 C66.72060547 37.15019531 66.10185547 36.94394531 65.46435547 36.73144531 C64.41248047 36.54582031 64.41248047 36.54582031 63.33935547 36.35644531 C62.34935547 37.34644531 62.34935547 37.34644531 61.33935547 38.35644531 C58.90917969 38.58349609 58.90917969 38.58349609 55.89404297 38.55175781 C54.81767578 38.5453125 53.74130859 38.53886719 52.63232422 38.53222656 C50.94042969 38.50708984 50.94042969 38.50708984 49.21435547 38.48144531 C48.07869141 38.47242188 46.94302734 38.46339844 45.77294922 38.45410156 C42.96154248 38.4304763 40.15055249 38.39753544 37.33935547 38.35644531 C37.33935547 37.69644531 37.33935547 37.03644531 37.33935547 36.35644531 C36.39060547 36.08832031 35.44185547 35.82019531 34.46435547 35.54394531 C31.33935547 34.35644531 31.33935547 34.35644531 29.33935547 31.35644531 C28.34935547 31.02644531 27.35935547 30.69644531 26.33935547 30.35644531 C26.33935547 29.69644531 26.33935547 29.03644531 26.33935547 28.35644531 C25.67935547 28.35644531 25.01935547 28.35644531 24.33935547 28.35644531 C24.94119296 30.37689974 25.61241643 32.37755571 26.33935547 34.35644531 C27.32935547 34.85144531 27.32935547 34.85144531 28.33935547 35.35644531 C27.01935547 37.33644531 25.69935547 39.31644531 24.33935547 41.35644531 C25.65935547 41.68644531 26.97935547 42.01644531 28.33935547 42.35644531 C28.33935547 43.67644531 28.33935547 44.99644531 28.33935547 46.35644531 C32.07373395 47.2351226 35.5071012 47.4455675 39.33935547 47.35644531 C39.33935547 48.01644531 39.33935547 48.67644531 39.33935547 49.35644531 C40.32935547 49.85144531 40.32935547 49.85144531 41.33935547 50.35644531 C40.84435547 51.34644531 40.84435547 51.34644531 40.33935547 52.35644531 C41.32935547 53.01644531 42.31935547 53.67644531 43.33935547 54.35644531 C43.33935547 55.67644531 43.33935547 56.99644531 43.33935547 58.35644531 C44.32935547 58.68644531 45.31935547 59.01644531 46.33935547 59.35644531 C46.33935547 60.01644531 46.33935547 60.67644531 46.33935547 61.35644531 C45.67935547 61.35644531 45.01935547 61.35644531 44.33935547 61.35644531 C44.33935547 60.69644531 44.33935547 60.03644531 44.33935547 59.35644531 C43.78248047 59.08832031 43.22560547 58.82019531 42.65185547 58.54394531 C40.12710213 57.24745035 37.70221062 55.93168208 35.33935547 54.35644531 C35.33935547 53.69644531 35.33935547 53.03644531 35.33935547 52.35644531 C34.80310547 52.10894531 34.26685547 51.86144531 33.71435547 51.60644531 C30.75695727 50.04991995 28.04211496 48.32208858 25.33935547 46.35644531 C25.33935547 45.69644531 25.33935547 45.03644531 25.33935547 44.35644531 C24.78892578 44.11539063 24.23849609 43.87433594 23.67138672 43.62597656 C20.80997073 42.06825429 18.51919591 40.14145954 16.02685547 38.04394531 C12.81059877 35.36229429 9.61209886 32.7775602 6.15185547 30.41894531 C5.22373047 29.73832031 4.29560547 29.05769531 3.33935547 28.35644531 C3.33935547 27.69644531 3.33935547 27.03644531 3.33935547 26.35644531 C2.57623047 26.12957031 1.81310547 25.90269531 1.02685547 25.66894531 C-2.25448717 24.06642914 -3.08101741 22.59468091 -4.66064453 19.35644531 C-4.99064453 18.36644531 -5.32064453 17.37644531 -5.66064453 16.35644531 C-5.00064453 15.69644531 -4.34064453 15.03644531 -3.66064453 14.35644531 C-5.31064453 14.68644531 -6.96064453 15.01644531 -8.66064453 15.35644531 C-8.99064453 14.69644531 -9.32064453 14.03644531 -9.66064453 13.35644531 C-8.3273112 12.02311198 -6.99397786 10.68977865 -5.66064453 9.35644531 C-6.01419889 7.09369743 -6.63608879 5.4055568 -7.66064453 3.35644531 C-5.24841833 0.40735003 -3.76617206 -0.01653613 0 0 Z " fill="#C2101C" transform="translate(199.66064453125,162.6435546875)"/>
<path d="M0 0 C3.3 0 6.6 0 10 0 C15.63288542 10.54217884 21.16866643 21.06076099 26 32 C26.53109375 30.7934375 27.0621875 29.586875 27.609375 28.34375 C28.32281533 26.72912189 29.03636272 25.11454108 29.75 23.5 C30.09804687 22.70851563 30.44609375 21.91703125 30.8046875 21.1015625 C32.80938897 16.57242214 34.89934182 12.11101668 37.15844727 7.70288086 C38.23750668 5.51940555 39.10778495 3.26485359 40 1 C41 0 41 0 43.28515625 -0.09765625 C44.20167969 -0.08605469 45.11820313 -0.07445312 46.0625 -0.0625 C46.98160156 -0.05347656 47.90070313 -0.04445313 48.84765625 -0.03515625 C49.55792969 -0.02355469 50.26820313 -0.01195312 51 0 C50.32447263 4.82383629 48.43030662 8.91761192 46.4375 13.3125 C45.91047485 14.48824585 45.91047485 14.48824585 45.37280273 15.68774414 C42.58060334 21.85811415 39.61298005 27.93178738 36.52709961 33.96020508 C35.16698568 36.6213276 33.94700951 39.15897146 33 42 C28.38 42 23.76 42 19 42 C6 18.09677419 6 18.09677419 6 12 C5.34 12 4.68 12 4 12 C3.32645501 10.56570999 2.66140299 9.12742943 2 7.6875 C1.62875 6.88699219 1.2575 6.08648437 0.875 5.26171875 C0 3 0 3 0 0 Z " fill="#E0E0E0" transform="translate(188,296)"/>
<path d="M0 0 C10.61961891 -0.91460833 10.61961891 -0.91460833 13.91015625 1.265625 C15.69738317 3.41238154 17 5.13981359 17 8 C17.66 8 18.32 8 19 8 C23 12.47058824 23 12.47058824 23 15 C23.66 15 24.32 15 25 15 C25 15.66 25 16.32 25 17 C25.66 17 26.32 17 27 17 C27.66 18.32 28.32 19.64 29 21 C28.34 21.99 27.68 22.98 27 24 C26.34 24 25.68 24 25 24 C24.01 26.475 24.01 26.475 23 29 C22.34 29 21.68 29 21 29 C20.01 31.475 20.01 31.475 19 34 C18.34 34 17.68 34 17 34 C16.690625 34.61875 16.38125 35.2375 16.0625 35.875 C15.375 37.25 14.6875 38.625 14 40 C13.34 40 12.68 40 12 40 C12 40.66 12 41.32 12 42 C7.38 42 2.76 42 -2 42 C-0.7260411 39.96166576 0.61061923 37.96147874 2 36 C2.66 36 3.32 36 4 36 C4.23460937 35.44828125 4.46921875 34.8965625 4.7109375 34.328125 C6.32848158 31.40674236 8.36450195 29.20425503 10.625 26.75 C11.85089844 25.41195313 11.85089844 25.41195313 13.1015625 24.046875 C13.72804688 23.37140625 14.35453125 22.6959375 15 22 C14.690625 21.236875 14.38125 20.47375 14.0625 19.6875 C13.32106407 17.81210323 12.63771783 15.91315348 12 14 C11.34 14 10.68 14 10 14 C8.41466298 12.28667246 6.90458785 10.50310953 5.4375 8.6875 C4.63183594 7.70136719 3.82617188 6.71523438 2.99609375 5.69921875 C1 3 1 3 0 0 Z " fill="#D5D5D5" transform="translate(289,296)"/>
<path d="M0 0 C14.29987923 -0.04683882 28.59974646 -0.08191364 42.89968681 -0.10362434 C49.54025556 -0.11404619 56.18074999 -0.12817621 62.82128906 -0.15087891 C69.23387279 -0.17266422 75.64640692 -0.18458066 82.05902481 -0.18975449 C84.50134181 -0.19344002 86.9436562 -0.2006369 89.385952 -0.21146011 C92.81579125 -0.22605048 96.2454275 -0.22797477 99.67529297 -0.22705078 C100.67727219 -0.23424133 101.6792514 -0.24143188 102.71159363 -0.24884033 C111.7579267 -0.22259693 119.81434435 1.08512121 128 5 C128 5.66 128 6.32 128 7 C129.65 7.66 131.3 8.32 133 9 C131.3125 9.75 131.3125 9.75 129 10 C127.28724465 8.72641268 125.62332967 7.38576923 124 6 C120.36694839 4.23361429 117.53598283 3.76713219 113.515625 3.83984375 C112.49855469 3.85080078 111.48148437 3.86175781 110.43359375 3.87304688 C109.38300781 3.89431641 108.33242188 3.91558594 107.25 3.9375 C105.15110766 3.97176245 103.05214327 4.00194162 100.953125 4.02734375 C100.02661133 4.04531006 99.10009766 4.06327637 98.14550781 4.08178711 C96 4 96 4 95 3 C92.62699131 2.90505267 90.28321297 2.87440681 87.90991211 2.88647461 C87.16849472 2.88632858 86.42707733 2.88618256 85.66319275 2.8860321 C83.20121379 2.88673135 80.73930957 2.89452426 78.27734375 2.90234375 C76.57483461 2.90420789 74.87232493 2.90563181 73.16981506 2.90663147 C68.68006927 2.91045698 64.19035562 2.92028753 59.70062256 2.93133545 C55.12268509 2.94154887 50.54474244 2.94612894 45.96679688 2.95117188 C36.97785043 2.96190978 27.98892788 2.97898659 19 3 C18.67 3.99 18.34 4.98 18 6 C18.66 6 19.32 6 20 6 C19.7525 6.86625 19.7525 6.86625 19.5 7.75 C18.85537969 10.26664369 18.85537969 10.26664369 19 14 C19.66 14.33 20.32 14.66 21 15 C21 15.66 21 16.32 21 17 C22.32 17 23.64 17 25 17 C25.33 17.99 25.66 18.98 26 20 C26.66 20.165 27.32 20.33 28 20.5 C28.66 20.665 29.32 20.83 30 21 C30.33 21.99 30.66 22.98 31 24 C31.845625 24.495 32.69125 24.99 33.5625 25.5 C34.366875 25.995 35.17125 26.49 36 27 C36 27.99 36 28.98 36 30 C35.34 30 34.68 30 34 30 C34 29.34 34 28.68 34 28 C33.46890625 27.76925781 32.9378125 27.53851563 32.390625 27.30078125 C29.24551969 25.58947395 26.53638466 23.41621472 23.75 21.1875 C23.15171387 20.7119165 22.55342773 20.23633301 21.93701172 19.74633789 C20.64561033 18.71756907 19.3557918 17.68681086 18.06738281 16.65429688 C15.89172577 14.91336016 13.70755243 13.18343462 11.5234375 11.453125 C10.05677815 10.28189275 8.5906218 9.11003032 7.125 7.9375 C6.41698242 7.37764404 5.70896484 6.81778809 4.97949219 6.2409668 C4.32883789 5.71672119 3.67818359 5.19247559 3.0078125 4.65234375 C2.42660645 4.18820068 1.84540039 3.72405762 1.24658203 3.24584961 C0.83520996 2.83471924 0.42383789 2.42358887 0 2 C0 1.34 0 0.68 0 0 Z " fill="#970E15" transform="translate(150,146)"/>
<path d="M0 0 C0.99 0 1.98 0 3 0 C3 0.66 3 1.32 3 2 C3.66 2 4.32 2 5 2 C5 2.66 5 3.32 5 4 C6.11181641 4.38478516 6.11181641 4.38478516 7.24609375 4.77734375 C10.12570491 6.05580941 11.79448312 7.39936251 14.0625 9.5625 C18.64709801 13.79919428 23.52064093 17.40045723 28.59375 21.01953125 C31 23 31 23 32 26 C31.67 26.66 31.34 27.32 31 28 C31.99 28.33 32.98 28.66 34 29 C38 33 38 33 38 36 C36 37.625 36 37.625 34 39 C33.01 38.505 33.01 38.505 32 38 C32 38.66 32 39.32 32 40 C27.62494898 41.21529195 27.62494898 41.21529195 25.02416992 40.31933594 C22.44810214 38.64027789 21.42044235 36.912478 19.86328125 34.265625 C19.28980957 33.30487061 18.71633789 32.34411621 18.12548828 31.35424805 C17.52720215 30.32984619 16.92891602 29.30544434 16.3125 28.25 C15.0679139 26.15665498 13.82182079 24.06420522 12.57421875 21.97265625 C11.66422119 20.4414917 11.66422119 20.4414917 10.73583984 18.87939453 C7.7827424 13.98082474 4.63823428 9.2147204 1.4765625 4.44921875 C0 2 0 2 0 0 Z " fill="#9F0E19" transform="translate(182,186)"/>
<path d="M0 0 C3.3 0 6.6 0 10 0 C10 13.86 10 27.72 10 42 C6.7 42 3.4 42 0 42 C0 28.14 0 14.28 0 0 Z " fill="#E1E1E1" transform="translate(399,296)"/>
<path d="M0 0 C3.3 0 6.6 0 10 0 C15.63506759 10.54626286 21.12370199 21.07781221 26 32 C26.33 32.66 26.66 33.32 27 34 C24 36 24 36 21 36 C21 36.99 21 37.98 21 39 C19.515 39.495 19.515 39.495 18 40 C16.55898467 37.31433412 15.12212053 34.62657941 13.6875 31.9375 C13.28337891 31.18533203 12.87925781 30.43316406 12.46289062 29.65820312 C6 17.52057927 6 17.52057927 6 12 C5.34 12 4.68 12 4 12 C3.32645501 10.56570999 2.66140299 9.12742943 2 7.6875 C1.62875 6.88699219 1.2575 6.08648437 0.875 5.26171875 C0 3 0 3 0 0 Z " fill="#D7D7D7" transform="translate(188,296)"/>
<path d="M0 0 C3.85917169 3.81621245 7.6120961 7.71732182 11.3125 11.6875 C12.13717773 12.55858398 12.13717773 12.55858398 12.97851562 13.44726562 C17 17.76848797 17 17.76848797 17 20 C17.66 20 18.32 20 19 20 C20.29041914 21.44764262 21.50767134 22.96089149 22.6875 24.5 C25.89293931 28.62546485 29.21763082 32.55849072 32.75 36.40625 C34 38 34 38 34 40 C34.66 40 35.32 40 36 40 C37.60634015 41.73391951 39.1375287 43.538091 40.625 45.375 C41.44226563 46.37273437 42.25953125 47.37046875 43.1015625 48.3984375 C45 51 45 51 45 53 C41.23480404 52.39945799 38.25927226 51.30638341 34.875 49.5625 C34.02679688 49.13066406 33.17859375 48.69882812 32.3046875 48.25390625 C30 47 30 47 27 45 C27 44.34 27 43.68 27 43 C26.319375 42.773125 25.63875 42.54625 24.9375 42.3125 C21.3011291 40.68773854 17.97170737 38.67196743 15 36 C15 35.34 15 34.68 15 34 C14.195625 33.71125 13.39125 33.4225 12.5625 33.125 C10 32 10 32 9 30 C11.64 30.33 14.28 30.66 17 31 C17.33 31.99 17.66 32.98 18 34 C19.65 34 21.3 34 23 34 C23.36980013 29.95377498 23.36980013 29.95377498 21 27 C20.01 26.67 19.02 26.34 18 26 C18 24.68 18 23.36 18 22 C17.01 21.67 16.02 21.34 15 21 C13.7890625 19.51171875 13.7890625 19.51171875 12.625 17.6875 C10.45422594 14.47080753 8.07092026 12.38849354 5 10 C4.67 9.01 4.34 8.02 4 7 C3.01 6.34 2.02 5.68 1 5 C0.3125 2.375 0.3125 2.375 0 0 Z " fill="#8F141D" transform="translate(272,222)"/>
<path d="M0 0 C1.32 0.33 2.64 0.66 4 1 C4.33 2.65 4.66 4.3 5 6 C5.66 6 6.32 6 7 6 C7.268125 6.639375 7.53625 7.27875 7.8125 7.9375 C8.88667752 10.33131686 8.88667752 10.33131686 12 11 C12.33 11.99 12.66 12.98 13 14 C13.99 14.33 14.98 14.66 16 15 C15.79375 14.38125 15.5875 13.7625 15.375 13.125 C15.25125 12.42375 15.1275 11.7225 15 11 C15.66 10.34 16.32 9.68 17 9 C17.71927295 6.68234271 18.3909893 4.34904126 19 2 C21.89684275 4.49535795 23.14626078 7.14040597 24.6640625 10.62109375 C25.38722656 12.27141602 25.38722656 12.27141602 26.125 13.95507812 C26.62 15.10427734 27.115 16.25347656 27.625 17.4375 C28.37910156 19.15549805 28.37910156 19.15549805 29.1484375 20.90820312 C33.18459778 30.17943689 33.18459778 30.17943689 34 34 C30.65750371 33.40312566 28.53563658 32.26396123 26 30 C26 29.34 26 28.68 26 28 C25.34 28 24.68 28 24 28 C24 27.34 24 26.68 24 26 C23.44699219 25.74734375 22.89398438 25.4946875 22.32421875 25.234375 C11.78662891 19.63794073 5.64907992 11.15439551 0 1 C0 0.67 0 0.34 0 0 Z " fill="#890C17" transform="translate(214,239)"/>
<path d="M0 0 C5.32132566 2.22117834 8.35346591 6.70469604 12 11 C12.845625 11.928125 13.69125 12.85625 14.5625 13.8125 C16 16 16 16 15.58984375 18.13671875 C15.39519531 18.75160156 15.20054687 19.36648438 15 20 C6.43879164 20.11843569 6.43879164 20.11843569 3 17.4453125 C-1 12.81069712 -1 12.81069712 -1 10 C-1.66 10 -2.32 10 -3 10 C-3.75 7.8125 -3.75 7.8125 -4 5 C-2.0625 2.1875 -2.0625 2.1875 0 0 Z " fill="#961821" transform="translate(318,319)"/>
<path d="M0 0 C1.06927734 0.15662109 1.06927734 0.15662109 2.16015625 0.31640625 C1.31827005 4.30885626 -0.38577534 7.04431503 -2.83984375 10.31640625 C-3.49984375 10.31640625 -4.15984375 10.31640625 -4.83984375 10.31640625 C-4.83984375 10.97640625 -4.83984375 11.63640625 -4.83984375 12.31640625 C-5.49984375 12.31640625 -6.15984375 12.31640625 -6.83984375 12.31640625 C-7.27296875 13.24453125 -7.27296875 13.24453125 -7.71484375 14.19140625 C-8.83984375 16.31640625 -8.83984375 16.31640625 -10.83984375 18.31640625 C-12.15984375 18.31640625 -13.47984375 18.31640625 -14.83984375 18.31640625 C-16.71484375 16.06640625 -16.71484375 16.06640625 -17.83984375 13.31640625 C-17.09375 11.44140625 -17.09375 11.44140625 -15.83984375 9.31640625 C-15.39769531 8.5378125 -14.95554687 7.75921875 -14.5 6.95703125 C-10.30826347 0.68479957 -7.52858968 -0.63835956 0 0 Z " fill="#D6131F" transform="translate(331.83984375,295.68359375)"/>
<path d="M0 0 C0.99 0.33 1.98 0.66 3 1 C2.74357696 2.91864771 2.46926564 4.83490994 2.1875 6.75 C2.03667969 7.81734375 1.88585937 8.8846875 1.73046875 9.984375 C0.98204283 13.07413333 0.19261351 14.72454215 -2 17 C-2.66 17 -3.32 17 -4 17 C-4 17.66 -4 18.32 -4 19 C-8.62 19 -13.24 19 -18 19 C-16.7260411 16.96166576 -15.38938077 14.96147874 -14 13 C-13.34 13 -12.68 13 -12 13 C-11.7525 12.443125 -11.505 11.88625 -11.25 11.3125 C-8.59901312 6.40817426 -6.27140166 3.8521141 -1 2 C-0.67 1.34 -0.34 0.68 0 0 Z " fill="#DDDDDD" transform="translate(305,319)"/>
<path d="M0 0 C0.55429688 0.42152344 1.10859375 0.84304687 1.6796875 1.27734375 C2.40414062 1.82519531 3.12859375 2.37304688 3.875 2.9375 C4.59429687 3.48277344 5.31359375 4.02804688 6.0546875 4.58984375 C7.94357079 6.03964624 7.94357079 6.03964624 10 7 C10 7.66 10 8.32 10 9 C10.5878125 9.26554688 11.175625 9.53109375 11.78125 9.8046875 C14 11 14 11 15.65625 12.5078125 C21.09388753 17.27726576 26.30092952 17.59377664 33.25 17.625 C34.12591797 17.63547363 35.00183594 17.64594727 35.90429688 17.65673828 C41.26959344 17.54059297 44.01488715 16.87698964 48 13 C48.66 13 49.32 13 50 13 C50 12.34 50 11.68 50 11 C50.66 11 51.32 11 52 11 C52.268125 10.2575 52.53625 9.515 52.8125 8.75 C53.94229421 6.13363446 55.20893202 4.19812889 57 2 C58 5 58 5 56.56640625 8.35546875 C55.90851193 9.6380304 55.24010257 10.91524057 54.5625 12.1875 C54.22412109 12.84169922 53.88574219 13.49589844 53.53710938 14.16992188 C52.70030902 15.78459299 51.85130254 17.39292763 51 19 C50.071875 18.690625 50.071875 18.690625 49.125 18.375 C48.42375 18.25125 47.7225 18.1275 47 18 C46.34 18.66 45.68 19.32 45 20 C42.56982422 20.22705078 42.56982422 20.22705078 39.5546875 20.1953125 C38.47832031 20.18886719 37.40195313 20.18242187 36.29296875 20.17578125 C35.16503906 20.15902344 34.03710938 20.14226562 32.875 20.125 C31.73933594 20.11597656 30.60367188 20.10695312 29.43359375 20.09765625 C26.62218701 20.07403098 23.81119702 20.04109013 21 20 C21 19.34 21 18.68 21 18 C20.05125 17.731875 19.1025 17.46375 18.125 17.1875 C15 16 15 16 13 13 C12.01 12.67 11.02 12.34 10 12 C9.34 11.01 8.68 10.02 8 9 C7.01 8.67 6.02 8.34 5 8 C5 7.34 5 6.68 5 6 C4.34 6 3.68 6 3 6 C3 5.34 3 4.68 3 4 C2.34 4 1.68 4 1 4 C0.67 2.68 0.34 1.36 0 0 Z " fill="#88161F" transform="translate(216,181)"/>
<path d="M0 0 C0.94601578 -0.00315216 1.89203156 -0.00630432 2.86671448 -0.009552 C4.41176918 -0.00651566 4.41176918 -0.00651566 5.98803711 -0.00341797 C7.05469101 -0.00437469 8.12134491 -0.00533142 9.22032166 -0.00631714 C11.49095722 -0.00699939 13.76159472 -0.00514198 16.03222656 -0.00097656 C19.44918431 0.00429245 22.86600579 -0.00087854 26.28295898 -0.00732422 C38.37636043 -0.01063921 50.39257757 0.20837633 62.45288086 1.12939453 C62.45288086 1.45939453 62.45288086 1.78939453 62.45288086 2.12939453 C41.33288086 2.45939453 20.21288086 2.78939453 -1.54711914 3.12939453 C4.88788086 8.07939453 4.88788086 8.07939453 11.45288086 13.12939453 C11.45288086 13.78939453 11.45288086 14.44939453 11.45288086 15.12939453 C12.44288086 15.45939453 13.43288086 15.78939453 14.45288086 16.12939453 C13.79288086 16.45939453 13.13288086 16.78939453 12.45288086 17.12939453 C9.82788086 15.81689453 9.82788086 15.81689453 7.45288086 14.12939453 C7.45288086 13.46939453 7.45288086 12.80939453 7.45288086 12.12939453 C6.13288086 12.12939453 4.81288086 12.12939453 3.45288086 12.12939453 C3.20538086 11.32501953 2.95788086 10.52064453 2.70288086 9.69189453 C1.73049227 6.95831353 1.73049227 6.95831353 -0.67211914 6.31689453 C-1.60024414 6.22408203 -1.60024414 6.22408203 -2.54711914 6.12939453 C-2.54711914 5.46939453 -2.54711914 4.80939453 -2.54711914 4.12939453 C-3.86711914 3.79939453 -5.18711914 3.46939453 -6.54711914 3.12939453 C-6.54711914 2.46939453 -6.54711914 1.80939453 -6.54711914 1.12939453 C-4.15306367 -0.06763321 -2.67235683 0.0025538 0 0 Z " fill="#AB2D33" transform="translate(199.547119140625,162.87060546875)"/>
<path d="M0 0 C3.85917169 3.81621245 7.6120961 7.71732182 11.3125 11.6875 C12.13717773 12.55858398 12.13717773 12.55858398 12.97851562 13.44726562 C17 17.76848797 17 17.76848797 17 20 C17.66 20 18.32 20 19 20 C20.37482452 21.52952876 21.67665897 23.12522906 22.9375 24.75 C23.97197266 26.07257813 23.97197266 26.07257813 25.02734375 27.421875 C26.69793275 29.60521903 28.35712058 31.79576052 30 34 C29.34 34 28.68 34 28 34 C28 34.66 28 35.32 28 36 C25.03 36.495 25.03 36.495 22 37 C21.67 37.99 21.34 38.98 21 40 C18.96166576 38.7260411 16.96147874 37.38938077 15 36 C15 35.34 15 34.68 15 34 C14.195625 33.71125 13.39125 33.4225 12.5625 33.125 C10 32 10 32 9 30 C11.64 30.33 14.28 30.66 17 31 C17.33 31.99 17.66 32.98 18 34 C19.65 34 21.3 34 23 34 C23.36980013 29.95377498 23.36980013 29.95377498 21 27 C20.01 26.67 19.02 26.34 18 26 C18 24.68 18 23.36 18 22 C17.01 21.67 16.02 21.34 15 21 C13.7890625 19.51171875 13.7890625 19.51171875 12.625 17.6875 C10.45422594 14.47080753 8.07092026 12.38849354 5 10 C4.67 9.01 4.34 8.02 4 7 C3.01 6.34 2.02 5.68 1 5 C0.3125 2.375 0.3125 2.375 0 0 Z " fill="#93101B" transform="translate(272,222)"/>
<path d="M0 0 C3.375 -0.125 3.375 -0.125 7 0 C7.66 0.66 8.32 1.32 9 2 C8.67 2.66 8.34 3.32 8 4 C9.32 4.33 10.64 4.66 12 5 C12 6.32 12 7.64 12 9 C15.73437848 9.87867729 19.16774573 10.08912219 23 10 C23 10.66 23 11.32 23 12 C23.66 12.33 24.32 12.66 25 13 C24.67 13.66 24.34 14.32 24 15 C24.99 15.66 25.98 16.32 27 17 C27 18.32 27 19.64 27 21 C27.99 21.33 28.98 21.66 30 22 C30 22.66 30 23.32 30 24 C29.34 24 28.68 24 28 24 C28 23.34 28 22.68 28 22 C27.443125 21.731875 26.88625 21.46375 26.3125 21.1875 C23.78774666 19.89100504 21.36285516 18.57523677 19 17 C19 16.34 19 15.68 19 15 C18.46375 14.7525 17.9275 14.505 17.375 14.25 C14.4176018 12.69347463 11.70275949 10.96564327 9 9 C9 8.34 9 7.68 9 7 C8.443125 6.773125 7.88625 6.54625 7.3125 6.3125 C4.36753316 4.64103234 2.31843456 2.44723648 0 0 Z " fill="#9E111B" transform="translate(216,200)"/>
<path d="M0 0 C2.12771411 2.12771411 2.93718931 3.77337546 4.1640625 6.5 C4.56367188 7.386875 4.96328125 8.27375 5.375 9.1875 C5.7875 10.115625 6.2 11.04375 6.625 12 C7.04523438 12.928125 7.46546875 13.85625 7.8984375 14.8125 C11 21.74066558 11 21.74066558 11 24 C7.65750371 23.40312566 5.53563658 22.26396123 3 20 C3 19.34 3 18.68 3 18 C2.34 18 1.68 18 1 18 C1 17.34 1 16.68 1 16 C0.360625 15.71125 -0.27875 15.4225 -0.9375 15.125 C-3 14 -3 14 -4 12 C-2.02 12.66 -0.04 13.32 2 14 C1.49396008 11.83125748 1.00016187 10.00032373 0 8 C-0.13415472 5.3276379 -0.04318541 2.67749512 0 0 Z " fill="#690E17" transform="translate(237,249)"/>
<path d="M0 0 C5.38935067 -0.09952633 10.7781561 -0.17177659 16.16821289 -0.21972656 C17.99838593 -0.23973374 19.82849592 -0.26694851 21.65844727 -0.30175781 C24.30240512 -0.35076003 26.94551165 -0.37307761 29.58984375 -0.390625 C30.79978249 -0.42159271 30.79978249 -0.42159271 32.03416443 -0.45318604 C38.12609944 -0.45554528 42.63109348 1.17687637 48 4 C48 4.66 48 5.32 48 6 C50.475 6.99 50.475 6.99 53 8 C51.3125 8.75 51.3125 8.75 49 9 C47.28724465 7.72641268 45.62332967 6.38576923 44 5 C40.36694839 3.23361429 37.53598283 2.76713219 33.515625 2.83984375 C32.49855469 2.85080078 31.48148437 2.86175781 30.43359375 2.87304688 C29.38300781 2.89431641 28.33242188 2.91558594 27.25 2.9375 C25.15110766 2.97176245 23.05214327 3.00194162 20.953125 3.02734375 C20.02661133 3.04531006 19.10009766 3.06327637 18.14550781 3.08178711 C16 3 16 3 15 2 C12.47403741 1.76346477 9.96892793 1.57826308 7.4375 1.4375 C6.72658203 1.39431641 6.01566406 1.35113281 5.28320312 1.30664062 C3.52238088 1.20028223 1.7612168 1.09961154 0 1 C0 0.67 0 0.34 0 0 Z " fill="#C81F29" transform="translate(230,147)"/>
<path d="M0 0 C4 0 4 0 5.4375 1.25 C5.953125 1.8275 6.46875 2.405 7 3 C10.87045081 6.87045081 13.73749459 7.4960922 19.01171875 7.7265625 C21 8 21 8 23 10 C23.125 13.625 23.125 13.625 23 17 C23.66 17.33 24.32 17.66 25 18 C20.99721935 18 19.51202411 16.47550007 16.3125 14.125 C15.31863281 13.40570313 14.32476562 12.68640625 13.30078125 11.9453125 C12.54152344 11.30335938 11.78226562 10.66140625 11 10 C11 9.34 11 8.68 11 8 C10.484375 7.773125 9.96875 7.54625 9.4375 7.3125 C6.09033884 5.51018245 2.96109508 3.38717496 0 1 C0 0.67 0 0.34 0 0 Z " fill="#87141D" transform="translate(257,233)"/>
<path d="M0 0 C9.80843419 0.61970499 9.80843419 0.61970499 14 4 C14 4.66 14 5.32 14 6 C16.97 6.495 16.97 6.495 20 7 C20.66 9.31 21.32 11.62 22 14 C20.68 14.33 19.36 14.66 18 15 C17.34 13.35 16.68 11.7 16 10 C14.35 10 12.7 10 11 10 C11 8.68 11 7.36 11 6 C10.38125 5.690625 9.7625 5.38125 9.125 5.0625 C7.75 4.375 6.375 3.6875 5 3 C5 2.34 5 1.68 5 1 C3.68 1.33 2.36 1.66 1 2 C0.67 1.34 0.34 0.68 0 0 Z " fill="#E11220" transform="translate(263,149)"/>
<path d="M0 0 C0.99 0.33 1.98 0.66 3 1 C2.67 2.32 2.34 3.64 2 5 C2.99 5.33 3.98 5.66 5 6 C5 6.66 5 7.32 5 8 C5.66 8 6.32 8 7 8 C9.13950218 10.42230994 10.75541395 13.01940335 12 16 C11.3125 19.5 11.3125 19.5 10 22 C9.67 22 9.34 22 9 22 C8.80083984 21.09507812 8.80083984 21.09507812 8.59765625 20.171875 C8.33275391 18.97304687 8.33275391 18.97304687 8.0625 17.75 C7.88847656 16.96109375 7.71445312 16.1721875 7.53515625 15.359375 C7.27025391 14.19148437 7.27025391 14.19148437 7 13 C6.86078125 12.26394531 6.7215625 11.52789062 6.578125 10.76953125 C6.38734375 10.18558594 6.1965625 9.60164062 6 9 C3.6569191 7.87914688 3.6569191 7.87914688 1 7 C0.45472656 6.49984375 -0.09054687 5.9996875 -0.65234375 5.484375 C-4.01835429 3.35611542 -7.3798705 3.43215948 -11.25 3.3125 C-12.36761719 3.26125977 -12.36761719 3.26125977 -13.5078125 3.20898438 C-15.33802492 3.12685946 -17.16898669 3.06174347 -19 3 C-19 2.67 -19 2.34 -19 2 C-17.19402344 1.90912109 -17.19402344 1.90912109 -15.3515625 1.81640625 C-13.77602923 1.73200268 -12.20050904 1.64735459 -10.625 1.5625 C-9.8309375 1.52318359 -9.036875 1.48386719 -8.21875 1.44335938 C-3.97398779 1.31106596 -3.97398779 1.31106596 0 0 Z " fill="#C51C2A" transform="translate(264,161)"/>
<path d="M0 0 C0.99 0 1.98 0 3 0 C1.55622784 3.57061932 -0.1794124 5.14791912 -3.375 7.25 C-4.14585937 7.77078125 -4.91671875 8.2915625 -5.7109375 8.828125 C-8 10 -8 10 -12 10 C-12 10.66 -12 11.32 -12 12 C-11.34 12 -10.68 12 -10 12 C-8.375 14.5 -8.375 14.5 -7 17 C-7.99 17 -8.98 17 -10 17 C-12.80255323 14.0936485 -13 13.21174952 -13 9 C-12.34 9 -11.68 9 -11 9 C-11 8.34 -11 7.68 -11 7 C-11.66 7 -12.32 7 -13 7 C-13 6.34 -13 5.68 -13 5 C-4.57142857 2.71428571 -4.57142857 2.71428571 0 3 C0 2.01 0 1.02 0 0 Z " fill="#97131D" transform="translate(279,205)"/>
<path d="M0 0 C3.1489715 1.36911804 5.0478487 2.8752136 7.25 5.5 C7.77078125 6.1084375 8.2915625 6.716875 8.828125 7.34375 C10 9 10 9 10 11 C6.26057281 10.39686658 3.25293224 9.32946122 -0.125 7.625 C-0.97320312 7.20476562 -1.82140625 6.78453125 -2.6953125 6.3515625 C-4.84763868 5.08935088 -6.34549781 3.8491495 -8 2 C-6.02 2 -4.04 2 -2 2 C-1.67 3.32 -1.34 4.64 -1 6 C0.32 5.67 1.64 5.34 3 5 C2.505 4.54625 2.01 4.0925 1.5 3.625 C0 2 0 2 0 0 Z " fill="#7F1821" transform="translate(307,264)"/>
<path d="M0 0 C0.66 0.99 1.32 1.98 2 3 C-0.31 7.62 -2.62 12.24 -5 17 C-11 16 -11 16 -13 15 C-8.25 11 -8.25 11 -6 11 C-6 10.34 -6 9.68 -6 9 C-5.34 9 -4.68 9 -4 9 C-3.71125 8.2575 -3.4225 7.515 -3.125 6.75 C-2.17697356 4.43260203 -1.15154089 2.22082885 0 0 Z " fill="#A11520" transform="translate(272,183)"/>
<path d="M0 0 C4.75 1.875 4.75 1.875 7 3 C7 3.66 7 4.32 7 5 C8.32 5 9.64 5 11 5 C11.33 5.99 11.66 6.98 12 8 C12.66 8.165 13.32 8.33 14 8.5 C14.66 8.665 15.32 8.83 16 9 C16.33 9.99 16.66 10.98 17 12 C17.845625 12.495 18.69125 12.99 19.5625 13.5 C20.366875 13.995 21.17125 14.49 22 15 C22 15.99 22 16.98 22 18 C21.34 18 20.68 18 20 18 C20 17.34 20 16.68 20 16 C19.40977051 15.72148193 18.81954102 15.44296387 18.21142578 15.15600586 C14.78424745 13.36447468 11.90025986 10.95463847 8.875 8.5625 C8.24207031 8.07201172 7.60914063 7.58152344 6.95703125 7.07617188 C6.04630859 6.35977539 6.04630859 6.35977539 5.1171875 5.62890625 C4.56659668 5.19650635 4.01600586 4.76410645 3.44873047 4.31860352 C2 3 2 3 0 0 Z " fill="#8C1924" transform="translate(164,158)"/>
<path d="M0 0 C0.99 0 1.98 0 3 0 C3 0.66 3 1.32 3 2 C3.66 2 4.32 2 5 2 C5 2.66 5 3.32 5 4 C5.78375 4.268125 6.5675 4.53625 7.375 4.8125 C10 6 10 6 12 9 C11.01 9.495 11.01 9.495 10 10 C10 9.34 10 8.68 10 8 C9.01 8 8.02 8 7 8 C7.66 8.53625 8.32 9.0725 9 9.625 C11 12 11 12 11.25 15.25 C11.1675 16.1575 11.085 17.065 11 18 C8.5310908 15.75357971 7.05017583 13.50882777 5.5 10.5625 C4.23058675 8.15793836 3.00051495 6.00067162 1.34375 3.83984375 C0 2 0 2 0 0 Z " fill="#861C26" transform="translate(182,186)"/>
<path d="M0 0 C1.32 0.33 2.64 0.66 4 1 C4.33 2.65 4.66 4.3 5 6 C5.66 6 6.32 6 7 6 C7.268125 6.639375 7.53625 7.27875 7.8125 7.9375 C8.88667752 10.33131686 8.88667752 10.33131686 12 11 C13.03013277 12.64821244 14.03114628 14.31503702 15 16 C15.66 16.33 16.32 16.66 17 17 C16.67 18.32 16.34 19.64 16 21 C8.69290745 15.71401816 4.48544386 8.67916126 0 1 C0 0.67 0 0.34 0 0 Z " fill="#73121B" transform="translate(214,239)"/>
<path d="M0 0 C6.40620872 1.32959049 6.40620872 1.32959049 8.9375 4.1875 C10.22708006 7.60109429 10.21292279 10.38031264 10 14 C9.01 13.67 8.02 13.34 7 13 C7 12.34 7 11.68 7 11 C6.34 11 5.68 11 5 11 C5 9.02 5 7.04 5 5 C4.01 4.67 3.02 4.34 2 4 C0.8125 1.9375 0.8125 1.9375 0 0 Z " fill="#B41220" transform="translate(188,193)"/>
<path d="M0 0 C3.82291769 3.7875203 7.56625416 7.63949126 11.25 11.5625 C12.06210937 12.40844727 12.06210937 12.40844727 12.890625 13.27148438 C15.56060337 16.12502375 17.27569864 18.15591063 18 22 C14.68525488 20.89508496 14.40471949 20.4765235 12.625 17.6875 C10.45422594 14.47080753 8.07092026 12.38849354 5 10 C4.67 9.01 4.34 8.02 4 7 C3.01 6.34 2.02 5.68 1 5 C0.3125 2.375 0.3125 2.375 0 0 Z " fill="#881A27" transform="translate(272,222)"/>
<path d="M0 0 C1.2065625 0.0309375 1.2065625 0.0309375 2.4375 0.0625 C2.7675 1.0525 3.0975 2.0425 3.4375 3.0625 C4.4275 3.3925 5.4175 3.7225 6.4375 4.0625 C6.7675 5.0525 7.0975 6.0425 7.4375 7.0625 C0.8125 7.3125 0.8125 7.3125 -2.5625 5.0625 C-3.3125 3 -3.3125 3 -3.5625 1.0625 C-2.5625 0.0625 -2.5625 0.0625 0 0 Z " fill="#BA0F1D" transform="translate(324.5625,329.9375)"/>
<path d="M0 0 C6.76954934 3.00868859 12.60180737 6.88941599 18 12 C18 12.66 18 13.32 18 14 C18.99 14.33 19.98 14.66 21 15 C20.01 15.495 20.01 15.495 19 16 C16.375 14.6875 16.375 14.6875 14 13 C14 12.34 14 11.68 14 11 C12.68 11 11.36 11 10 11 C9.7525 10.195625 9.505 9.39125 9.25 8.5625 C8.27761141 5.828919 8.27761141 5.828919 5.875 5.1875 C4.946875 5.0946875 4.946875 5.0946875 4 5 C4 4.34 4 3.68 4 3 C2.68 2.67 1.36 2.34 0 2 C0 1.34 0 0.68 0 0 Z " fill="#981725" transform="translate(193,164)"/>
<path d="M0 0 C0.73605469 0.08121094 1.47210938 0.16242188 2.23046875 0.24609375 C1.39833156 4.23341778 -0.37294655 6.95078979 -2.76953125 10.24609375 C-3.09953125 10.24609375 -3.42953125 10.24609375 -3.76953125 10.24609375 C-4.13876202 5.6922476 -4.13876202 5.6922476 -2.26953125 3.43359375 C-1.77453125 3.04171875 -1.27953125 2.64984375 -0.76953125 2.24609375 C-4.91046823 2.03638816 -4.91046823 2.03638816 -8.76953125 3.24609375 C-9.49112549 4.88972509 -10.16304546 6.55659761 -10.76953125 8.24609375 C-11.75953125 7.91609375 -12.74953125 7.58609375 -13.76953125 7.24609375 C-10.17284721 0.30077284 -7.72753636 -0.5001972 0 0 Z " fill="#A3252B" transform="translate(331.76953125,295.75390625)"/>
<path d="M0 0 C1.9375 0.75 1.9375 0.75 4 2 C4.75 4.125 4.75 4.125 5 6 C3.35 5.67 1.7 5.34 0 5 C0.33 6.98 0.66 8.96 1 11 C-0.32 10.67 -1.64 10.34 -3 10 C-3.75 7.8125 -3.75 7.8125 -4 5 C-2.0625 2.1875 -2.0625 2.1875 0 0 Z " fill="#8D1A24" transform="translate(318,319)"/>
<path d="M0 0 C1.35439668 2.70879335 1.06501451 5.00933268 1 8 C1.99 8 2.98 8 4 8 C4 7.01 4 6.02 4 5 C4.66 5 5.32 5 6 5 C6 4.34 6 3.68 6 3 C7.32 2.67 8.64 2.34 10 2 C10 2.66 10 3.32 10 4 C9.34 4 8.68 4 8 4 C7.566875 4.928125 7.566875 4.928125 7.125 5.875 C6 8 6 8 4 10 C2.68 10 1.36 10 0 10 C-1.875 7.75 -1.875 7.75 -3 5 C-2.28541109 2.85623326 -1.58775583 1.58775583 0 0 Z " fill="#911F2A" transform="translate(317,304)"/>
<path d="M0 0 C1.32 0 2.64 0 4 0 C4 0.66 4 1.32 4 2 C4.99 2.33 5.98 2.66 7 3 C7 3.66 7 4.32 7 5 C8.65 5 10.3 5 12 5 C12.28875 5.61875 12.5775 6.2375 12.875 6.875 C13.93720042 9.13325765 13.93720042 9.13325765 16 11 C15.01 11.495 15.01 11.495 14 12 C11.99406276 10.54927753 9.99539826 9.09008971 8 7.625 C7.42765625 7.2125 6.8553125 6.8 6.265625 6.375 C4.80684688 5.29828281 3.39899024 4.15333422 2 3 C2 2.34 2 1.68 2 1 C1.34 0.67 0.68 0.34 0 0 Z " fill="#921A22" transform="translate(201,188)"/>
<path d="M0 0 C2.475 0.495 2.475 0.495 5 1 C5 1.99 5 2.98 5 4 C6.65 4.33 8.3 4.66 10 5 C10 5.99 10 6.98 10 8 C10.66 8 11.32 8 12 8 C12.33 8.99 12.66 9.98 13 11 C9.76306836 9.51516897 7.0674375 7.67292565 4.25 5.5 C3.45078125 4.8915625 2.6515625 4.283125 1.828125 3.65625 C1.22484375 3.1096875 0.6215625 2.563125 0 2 C0 1.34 0 0.68 0 0 Z " fill="#871B25" transform="translate(151,147)"/>
<path d="M0 0 C2.4375 0.75 2.4375 0.75 5 2 C5.6875 3.875 5.6875 3.875 6 6 C6.63654342 7.3479743 7.29605388 8.68596724 8 10 C6.35 9.67 4.7 9.34 3 9 C2.67 7.68 2.34 6.36 2 5 C1.01 5 0.02 5 -1 5 C-1.33 4.01 -1.66 3.02 -2 2 C-1.34 2 -0.68 2 0 2 C0 1.34 0 0.68 0 0 Z " fill="#AC0D1D" transform="translate(303,261)"/>
<path d="M0 0 C0.66 0 1.32 0 2 0 C2 0.66 2 1.32 2 2 C2.61875 2.226875 3.2375 2.45375 3.875 2.6875 C6.64557394 4.39873685 6.9657324 5.97107345 8 9 C8.99 10.485 8.99 10.485 10 12 C9.625 14.1875 9.625 14.1875 9 16 C7.49734474 13.5224077 5.99777081 11.04304235 4.5 8.5625 C4.07074219 7.85544922 3.64148438 7.14839844 3.19921875 6.41992188 C0 1.11328125 0 1.11328125 0 0 Z " fill="#7C151F" transform="translate(193,204)"/>
<path d="M0 0 C2.475 0.495 2.475 0.495 5 1 C5 1.66 5 2.32 5 3 C5.66 3 6.32 3 7 3 C9.13950218 5.42230994 10.75541395 8.01940335 12 11 C11.3125 14.5 11.3125 14.5 10 17 C9.67 17 9.34 17 9 17 C8.86722656 16.39671875 8.73445313 15.7934375 8.59765625 15.171875 C8.42105469 14.37265625 8.24445313 13.5734375 8.0625 12.75 C7.88847656 11.96109375 7.71445312 11.1721875 7.53515625 10.359375 C7.27025391 9.19148437 7.27025391 9.19148437 7 8 C6.86464844 7.26523438 6.72929687 6.53046875 6.58984375 5.7734375 C6.29787109 4.89558594 6.29787109 4.89558594 6 4 C3.52869082 2.84478498 3.52869082 2.84478498 1 2 C0.67 1.34 0.34 0.68 0 0 Z " fill="#961A23" transform="translate(264,166)"/>
<path d="M0 0 C0.66 0 1.32 0 2 0 C2 1.65 2 3.3 2 5 C-0.76264289 5.59732819 -3.16032769 6 -6 6 C-6.33 5.01 -6.66 4.02 -7 3 C-4.50935112 2.31292445 -2.62113708 2 0 2 C0 1.34 0 0.68 0 0 Z " fill="#A8121E" transform="translate(300,256)"/>
<path d="M0 0 C1.65 0 3.3 0 5 0 C5 0.66 5 1.32 5 2 C2 4 2 4 -2 4 C-2 4.66 -2 5.32 -2 6 C-1.34 6 -0.68 6 0 6 C1.625 8.5 1.625 8.5 3 11 C2.01 11 1.02 11 0 11 C-2.80255323 8.0936485 -3 7.21174952 -3 3 C-2.34 3 -1.68 3 -1 3 C-0.67 2.01 -0.34 1.02 0 0 Z " fill="#841923" transform="translate(269,211)"/>
<path d="M0 0 C0.99 0.33 1.98 0.66 3 1 C2.34 1 1.68 1 1 1 C1.33 1.7425 1.66 2.485 2 3.25 C3 6 3 6 3 10 C2.01 10.33 1.02 10.66 0 11 C-2.21538462 5.70769231 -2.21538462 5.70769231 -1.125 2.125 C-0.75375 1.42375 -0.3825 0.7225 0 0 Z " fill="#AC0D1C" transform="translate(265,213)"/>
<path d="M0 0 C-0.33 0.66 -0.66 1.32 -1 2 C-1.33 2.99 -1.66 3.98 -2 5 C-1.34 5.33 -0.68 5.66 0 6 C-3.99904969 6 -5.80200422 4.27413033 -9 2 C-8 0 -8 0 -6.1875 -0.6875 C-3.81180233 -1.02688538 -2.26664171 -0.72856341 0 0 Z " fill="#A81621" transform="translate(197,177)"/>
<path d="M0 0 C0.66 0 1.32 0 2 0 C2.6875 2.8125 2.6875 2.8125 3 6 C1.5625 7.875 1.5625 7.875 0 9 C-0.99 8.67 -1.98 8.34 -3 8 C-3.6875 5.9375 -3.6875 5.9375 -4 4 C-3.01 3.67 -2.02 3.34 -1 3 C-0.67 2.01 -0.34 1.02 0 0 Z " fill="#D90F1E" transform="translate(277,168)"/>
<path d="M0 0 C3.90432869 1.95216435 6.03839944 3.87386607 9 7 C7 7 5 7 3 7 C2.67 7.99 2.34 8.98 2 10 C1.34 6.7 0.68 3.4 0 0 Z " fill="#94141C" transform="translate(196,197)"/>
<path d="M0 0 C2.31 0.66 4.62 1.32 7 2 C7 3.32 7 4.64 7 6 C7.99 6.33 8.98 6.66 10 7 C10 7.66 10 8.32 10 9 C9.34 9 8.68 9 8 9 C8 8.34 8 7.68 8 7 C7.4225 6.7525 6.845 6.505 6.25 6.25 C3.68684812 4.82602673 1.95895126 3.16883889 0 1 C0 0.67 0 0.34 0 0 Z " fill="#8E1620" transform="translate(236,215)"/>
<path d="M0 0 C4.2552033 4.2552033 4.125 9.72646601 4.125 15.4375 C4.09314594 17.2918612 4.05479286 19.1461748 4 21 C3.67 21 3.34 21 3 21 C2.92652344 20.03900391 2.92652344 20.03900391 2.8515625 19.05859375 C2.49842076 14.97310917 2.14522823 11.05654084 0.9375 7.125 C0 4 0 4 0 0 Z " fill="#7E121B" transform="translate(289,165)"/>
<path d="M0 0 C1.34173403 0.92543709 2.67320159 1.86577405 4 2.8125 C5.11375 3.59560547 5.11375 3.59560547 6.25 4.39453125 C7.11625 5.18923828 7.11625 5.18923828 8 6 C8 6.99 8 7.98 8 9 C7.67 8.34 7.34 7.68 7 7 C5.824375 6.7834375 5.824375 6.7834375 4.625 6.5625 C1.74874279 5.94615917 0.83615293 5.22271144 -1 3 C-0.67 2.01 -0.34 1.02 0 0 Z " fill="#75151B" transform="translate(214,211)"/>
<path d="M0 0 C2.97 0.99 5.94 1.98 9 3 C9 3.66 9 4.32 9 5 C11.475 5.99 11.475 5.99 14 7 C12.3125 7.75 12.3125 7.75 10 8 C8.28724465 6.72641268 6.62332967 5.38576923 5 4 C2.3205355 2.75983331 2.3205355 2.75983331 0 2 C0 1.34 0 0.68 0 0 Z " fill="#9E1F27" transform="translate(269,148)"/>
<path d="M0 0 C4.5746417 2.52394025 5.52056552 6.28150063 7 11 C6.34 11 5.68 11 5 11 C5 10.34 5 9.68 5 9 C4.360625 8.814375 3.72125 8.62875 3.0625 8.4375 C1 7 1 7 0.25 3.375 C0.1675 2.26125 0.085 1.1475 0 0 Z " fill="#871623" transform="translate(224,223)"/>
<path d="M0 0 C1.66666667 1.66666667 3.33333333 3.33333333 5 5 C5.763125 5.721875 6.52625 6.44375 7.3125 7.1875 C9 9 9 9 9 11 C7.0625 10.6875 7.0625 10.6875 5 10 C4.67 9.01 4.34 8.02 4 7 C3.01 6.34 2.02 5.68 1 5 C0.3125 2.375 0.3125 2.375 0 0 Z " fill="#76121C" transform="translate(272,222)"/>
<path d="M0 0 C6.54705882 1.48235294 6.54705882 1.48235294 8.75 4 C9.36875 4.99 9.36875 4.99 10 6 C10.99 6.66 11.98 7.32 13 8 C12.01 8.33 11.02 8.66 10 9 C9.34 8.67 8.68 8.34 8 8 C8 7.34 8 6.68 8 6 C7.4225 5.7525 6.845 5.505 6.25 5.25 C3.6997003 3.83316683 1.98214299 2.12372463 0 0 Z " fill="#841524" transform="translate(246,224)"/>
<path d="M0 0 C1.98 0.66 3.96 1.32 6 2 C6 2.66 6 3.32 6 4 C7.98 4.66 9.96 5.32 12 6 C11.67 6.99 11.34 7.98 11 9 C9.66144944 8.21718695 8.32926356 7.42348123 7 6.625 C6.2575 6.18414062 5.515 5.74328125 4.75 5.2890625 C4.1725 4.86367187 3.595 4.43828125 3 4 C3 3.34 3 2.68 3 2 C2.01 1.67 1.02 1.34 0 1 C0 0.67 0 0.34 0 0 Z " fill="#7C171F" transform="translate(222,205)"/>
<path d="M0 0 C1.65 0 3.3 0 5 0 C4.67 2.31 4.34 4.62 4 7 C2 7 2 7 0.3125 5.75 C-1 4 -1 4 -0.6875 1.8125 C-0.460625 1.214375 -0.23375 0.61625 0 0 Z " fill="#D9111E" transform="translate(267,162)"/>
<path d="M0 0 C1.65 0 3.3 0 5 0 C5.33 0.99 5.66 1.98 6 3 C6.66 3 7.32 3 8 3 C8 3.66 8 4.32 8 5 C5.69 4.67 3.38 4.34 1 4 C0.67 2.68 0.34 1.36 0 0 Z " fill="#A40F1A" transform="translate(280,248)"/>
<path d="M0 0 C2.625 1.3125 2.625 1.3125 5 3 C5 3.66 5 4.32 5 5 C2.36 5 -0.28 5 -3 5 C-2.625 3.0625 -2.625 3.0625 -2 1 C-1.34 0.67 -0.68 0.34 0 0 Z " fill="#B00E1D" transform="translate(201,203)"/>
<path d="M0 0 C0.66 0 1.32 0 2 0 C2 0.66 2 1.32 2 2 C2.598125 2.12375 3.19625 2.2475 3.8125 2.375 C6 3 6 3 9 5 C8.67 6.32 8.34 7.64 8 9 C6.84775972 8.07038578 5.70340824 7.1309875 4.5625 6.1875 C3.60537109 5.40439453 3.60537109 5.40439453 2.62890625 4.60546875 C1 3 1 3 0 0 Z " fill="#601118" transform="translate(222,251)"/>
<path d="M0 0 C2.31 0.33 4.62 0.66 7 1 C7.33 2.65 7.66 4.3 8 6 C7.34 6 6.68 6 6 6 C6 5.34 6 4.68 6 4 C5.195625 3.71125 4.39125 3.4225 3.5625 3.125 C1 2 1 2 0 0 Z " fill="#72151D" transform="translate(281,252)"/>
<path d="M0 0 C0.66 0.33 1.32 0.66 2 1 C1.67 4.3 1.34 7.6 1 11 C-1.26609984 6.46780033 -0.92735976 4.82227075 0 0 Z " fill="#C81828" transform="translate(274,178)"/>
<path d="M0 0 C2.27795022 2.27795022 3.05219877 3.93787293 4 7 C3.625 9.3125 3.625 9.3125 3 11 C1.5 10 1.5 10 0 8 C-0.27345479 5.28153765 -0.13491285 2.74322801 0 0 Z " fill="#76131B" transform="translate(237,249)"/>
<path d="M0 0 C4.875 4.625 4.875 4.625 6 8 C5.01 8.495 5.01 8.495 4 9 C3.67 8.34 3.34 7.68 3 7 C2.01 6.67 1.02 6.34 0 6 C0 4.02 0 2.04 0 0 Z " fill="#7C111B" transform="translate(290,242)"/>
<path d="M0 0 C0.99 0 1.98 0 3 0 C2.67 0.99 2.34 1.98 2 3 C2 4.72082924 2.5722028 6.34228586 3 8 C1 8 1 8 -0.625 6.5 C-1.07875 6.005 -1.5325 5.51 -2 5 C-1.34 3.35 -0.68 1.7 0 0 Z " fill="#A90F1D" transform="translate(245,216)"/>
<path d="M0 0 C0.66 1.32 1.32 2.64 2 4 C0.69593116 6.01920337 -0.63823419 8.01924973 -2 10 C-2.33 10 -2.66 10 -3 10 C-3 8.02 -3 6.04 -3 4 C-2.34 3.67 -1.68 3.34 -1 3 C-0.67 2.01 -0.34 1.02 0 0 Z " fill="#901723" transform="translate(287,194)"/>
<path d="M0 0 C2.03833424 1.2739589 4.03852126 2.61061923 6 4 C6 4.66 6 5.32 6 6 C6.99 6.33 7.98 6.66 9 7 C8.01 7.495 8.01 7.495 7 8 C4.375 6.6875 4.375 6.6875 2 5 C2 4.34 2 3.68 2 3 C0.68 2.67 -0.64 2.34 -2 2 C-1.34 2 -0.68 2 0 2 C0 1.34 0 0.68 0 0 Z " fill="#8A181F" transform="translate(205,172)"/>
<path d="M0 0 C1.65 0 3.3 0 5 0 C5 0.66 5 1.32 5 2 C4.34 2 3.68 2 3 2 C3.33 3.32 3.66 4.64 4 6 C3.01 5.67 2.02 5.34 1 5 C1 4.34 1 3.68 1 3 C0.34 2.67 -0.32 2.34 -1 2 C-0.67 1.34 -0.34 0.68 0 0 Z " fill="#A30D1B" transform="translate(265,234)"/>
<path d="M0 0 C2.475 0.99 2.475 0.99 5 2 C4.01 2.99 3.02 3.98 2 5 C1.01 4.67 0.02 4.34 -1 4 C-0.67 2.68 -0.34 1.36 0 0 Z " fill="#C40C1F" transform="translate(318,323)"/>
<path d="M0 0 C0.66 0 1.32 0 2 0 C2.66 1.98 3.32 3.96 4 6 C2.0625 5.6875 2.0625 5.6875 0 5 C-0.33 4.01 -0.66 3.02 -1 2 C-0.67 1.34 -0.34 0.68 0 0 Z " fill="#55151B" transform="translate(244,267)"/>
<path d="M0 0 C0.33 0.66 0.66 1.32 1 2 C1.66 2 2.32 2 3 2 C4.6875 4.375 4.6875 4.375 6 7 C5.67 7.66 5.34 8.32 5 9 C2.5 6.75 2.5 6.75 0 4 C0 2.68 0 1.36 0 0 Z " fill="#931B23" transform="translate(283,156)"/>
<path d="M0 0 C0 0.66 0 1.32 0 2 C-0.66 2 -1.32 2 -2 2 C-2.28875 2.639375 -2.5775 3.27875 -2.875 3.9375 C-4 6 -4 6 -6 7 C-6 5.68 -6 4.36 -6 3 C-5.34 3 -4.68 3 -4 3 C-4 2.34 -4 1.68 -4 1 C-2 0 -2 0 0 0 Z " fill="#9F1E26" transform="translate(327,306)"/>
<path d="M0 0 C1.46726798 3.81489674 0.43336419 6.29011622 -1 10 C-1.33 10 -1.66 10 -2 10 C-2.1953125 3.9453125 -2.1953125 3.9453125 -2 2 C-1.34 1.34 -0.68 0.68 0 0 Z " fill="#961C22" transform="translate(291,186)"/>
<path d="M0 0 C0.99 0.33 1.98 0.66 3 1 C2.67 2.32 2.34 3.64 2 5 C0.35 5 -1.3 5 -3 5 C-2.34 4.34 -1.68 3.68 -1 3 C-1.33 2.34 -1.66 1.68 -2 1 C-1.34 0.67 -0.68 0.34 0 0 Z " fill="#C81323" transform="translate(264,161)"/>
<path d="M0 0 C1.32 1.32 2.64 2.64 4 4 C1.36 4 -1.28 4 -4 4 C-2.68 2.68 -1.36 1.36 0 0 Z " fill="#EEEEEE" transform="translate(293,334)"/>
<path d="M0 0 C0.66 0.33 1.32 0.66 2 1 C2.625 3.0625 2.625 3.0625 3 5 C1.35 5.33 -0.3 5.66 -2 6 C-2 5.01 -2 4.02 -2 3 C-1.34 3 -0.68 3 0 3 C0 2.01 0 1.02 0 0 Z " fill="#AB0C1E" transform="translate(294,251)"/>
<path d="" fill="#000000" transform="translate(0,0)"/>
<path d="" fill="#000000" transform="translate(0,0)"/>
<path d="" fill="#000000" transform="translate(0,0)"/>
<path d="" fill="#000000" transform="translate(0,0)"/>
<path d="" fill="#000000" transform="translate(0,0)"/>
<path d="" fill="#000000" transform="translate(0,0)"/>
<path d="" fill="#000000" transform="translate(0,0)"/>
<path d="" fill="#000000" transform="translate(0,0)"/>
<path d="" fill="#000000" transform="translate(0,0)"/>
<path d="" fill="#000000" transform="translate(0,0)"/>
<path d="" fill="#000000" transform="translate(0,0)"/>
<path d="" fill="#000000" transform="translate(0,0)"/>
<path d="" fill="#000000" transform="translate(0,0)"/>
<path d="" fill="#000000" transform="translate(0,0)"/>
<path d="" fill="#000000" transform="translate(0,0)"/>
<path d="" fill="#000000" transform="translate(0,0)"/>
<path d="" fill="#000000" transform="translate(0,0)"/>
<path d="" fill="#000000" transform="translate(0,0)"/>
<path d="" fill="#000000" transform="translate(0,0)"/>
<path d="" fill="#000000" transform="translate(0,0)"/>
<path d="" fill="#000000" transform="translate(0,0)"/>
<path d="" fill="#000000" transform="translate(0,0)"/>
<path d="" fill="#000000" transform="translate(0,0)"/>
<path d="" fill="#000000" transform="translate(0,0)"/>
<path d="" fill="#000000" transform="translate(0,0)"/>
<path d="" fill="#000000" transform="translate(0,0)"/>
<path d="" fill="#000000" transform="translate(0,0)"/>
<path d="" fill="#000000" transform="translate(0,0)"/>
<path d="" fill="#000000" transform="translate(0,0)"/>
<path d="" fill="#000000" transform="translate(0,0)"/>
<path d="" fill="#000000" transform="translate(0,0)"/>
<path d="" fill="#000000" transform="translate(0,0)"/>
<path d="" fill="#000000" transform="translate(0,0)"/>
<path d="" fill="#000000" transform="translate(0,0)"/>
<path d="" fill="#000000" transform="translate(0,0)"/>
<path d="" fill="#000000" transform="translate(0,0)"/>
<path d="" fill="#000000" transform="translate(0,0)"/>
<path d="" fill="#000000" transform="translate(0,0)"/>
<path d="" fill="#000000" transform="translate(0,0)"/>
<path d="" fill="#000000" transform="translate(0,0)"/>
<path d="" fill="#000000" transform="translate(0,0)"/>
<path d="" fill="#000000" transform="translate(0,0)"/>
<path d="" fill="#000000" transform="translate(0,0)"/>
<path d="" fill="#000000" transform="translate(0,0)"/>
<path d="" fill="#000000" transform="translate(0,0)"/>
<path d="" fill="#000000" transform="translate(0,0)"/>
<path d="" fill="#000000" transform="translate(0,0)"/>
<path d="" fill="#000000" transform="translate(0,0)"/>
<path d="" fill="#000000" transform="translate(0,0)"/>
<path d="" fill="#000000" transform="translate(0,0)"/>
<path d="" fill="#000000" transform="translate(0,0)"/>
<path d="" fill="#000000" transform="translate(0,0)"/>
<path d="" fill="#000000" transform="translate(0,0)"/>
<path d="" fill="#000000" transform="translate(0,0)"/>
<path d="" fill="#000000" transform="translate(0,0)"/>
<path d="" fill="#000000" transform="translate(0,0)"/>
<path d="" fill="#000000" transform="translate(0,0)"/>
<path d="" fill="#000000" transform="translate(0,0)"/>
<path d="" fill="#000000" transform="translate(0,0)"/>
<path d="" fill="#000000" transform="translate(0,0)"/>
<path d="" fill="#000000" transform="translate(0,0)"/>
<path d="" fill="#000000" transform="translate(0,0)"/>
<path d="" fill="#000000" transform="translate(0,0)"/>
<path d="" fill="#000000" transform="translate(0,0)"/>
<path d="" fill="#000000" transform="translate(0,0)"/>
<path d="" fill="#000000" transform="translate(0,0)"/>
<path d="" fill="#000000" transform="translate(0,0)"/>
<path d="" fill="#000000" transform="translate(0,0)"/>
<path d="" fill="#000000" transform="translate(0,0)"/>
<path d="" fill="#000000" transform="translate(0,0)"/>
<path d="" fill="#000000" transform="translate(0,0)"/>
<path d="" fill="#000000" transform="translate(0,0)"/>
<path d="" fill="#000000" transform="translate(0,0)"/>
<path d="" fill="#000000" transform="translate(0,0)"/>
<path d="" fill="#000000" transform="translate(0,0)"/>
</svg>
