<?xml version="1.0" encoding="UTF-8"?>
<svg version="1.1" xmlns="http://www.w3.org/2000/svg" width="1024" height="1024">
<path d="M0 0 C337.92 0 675.84 0 1024 0 C1024 337.92 1024 675.84 1024 1024 C686.08 1024 348.16 1024 0 1024 C0 686.08 0 348.16 0 0 Z " fill="#080908" transform="translate(0,0)"/>
<path d="M0 0 C29.27483022 -0.04565212 58.54965792 -0.08103326 87.82451647 -0.10213066 C91.282832 -0.10463199 94.74114746 -0.10722064 98.19946289 -0.10986328 C99.23216972 -0.11065021 99.23216972 -0.11065021 100.28573931 -0.11145304 C111.42472856 -0.12014915 122.5636971 -0.13591475 133.70267408 -0.15430559 C145.13731336 -0.17302675 156.57193586 -0.18397176 168.0065909 -0.18817699 C174.42713836 -0.19078372 180.8476389 -0.19690824 187.26817131 -0.21146011 C193.3132308 -0.2250498 199.35822411 -0.2292198 205.40329742 -0.22621536 C207.62001213 -0.2267649 209.83672908 -0.23073403 212.05343056 -0.23841095 C215.08505314 -0.2483938 218.11642743 -0.24595661 221.14805603 -0.24050903 C222.45694626 -0.24924756 222.45694626 -0.24924756 223.79227871 -0.25816262 C242.26300167 -0.16874655 258.50223483 7.85139683 271.8125 20.25 C285.72694707 35.00697322 290.60067234 53.24802463 290.26953125 73.046875 C289.50019984 92.79936412 278.86214303 110.74142974 264.875 124.125 C256.61320606 131.1816465 246.70482893 136.23873586 237 141 C245.78389612 151.2053288 245.78389612 151.2053288 254.75 161.25 C257.73863253 164.54292966 260.58383605 167.91316769 263.375 171.375 C267.05701535 175.92940923 270.92900357 180.23747565 274.91577148 184.52124023 C277.8868675 187.73263407 280.69946588 191.02609763 283.4375 194.4375 C286.80346662 198.62237799 290.33179641 202.58310464 294 206.5 C298.49961275 211.30543917 302.73103459 216.25161243 306.85546875 221.38671875 C308.99874956 223.99847623 311.2238033 226.50365302 313.5 229 C317.39135559 233.26902615 321.0330911 237.69741516 324.66015625 242.19140625 C327.90992092 246.09220892 331.35866766 249.79413862 334.8359375 253.4921875 C336.89749773 255.88121578 338.47074474 258.24734052 340 261 C325.63421943 256.4228901 313.56668456 249.98126977 301.86425781 240.50830078 C300.09785719 239.07917257 298.31567831 237.67386187 296.5234375 236.27734375 C294.23924091 234.49677794 291.96221753 232.70776203 289.69140625 230.91015625 C285.50314928 227.60002687 281.28146824 224.33332541 277.0625 221.0625 C270.86493895 216.2542163 264.7204319 211.3867489 258.61132812 206.46679688 C253.98542678 202.75526073 249.2867959 199.14763057 244.5625 195.5625 C238.18272629 190.71947069 231.93376817 185.74066105 225.73852539 180.66430664 C221.71030016 177.36984549 217.63856587 174.15489196 213.5 171 C207.88439664 166.71879744 202.40724685 162.2865719 196.94140625 157.81640625 C192.84392978 154.47393504 188.70520058 151.20594499 184.5 148 C177.46220931 142.63204536 170.61876573 137.03528396 163.76416016 131.43652344 C161.52089324 129.6098721 159.26267592 127.8025351 157 126 C153.42129727 123.14784598 149.86756697 120.2665989 146.32055664 117.37524414 C140.60750517 112.71844367 134.87576732 108.09372526 129.0625 103.5625 C123.05709595 98.87928402 117.18149929 94.04918543 111.31665039 89.19165039 C106.37263692 85.10581351 101.36429903 81.11694576 96.30200195 77.17919922 C91.69218099 73.57902393 87.18602903 69.86286867 82.6875 66.125 C76.37518932 60.88566799 69.93779963 55.85316416 63.39331055 50.90820312 C57.40618823 46.36266858 51.60318336 41.61508152 45.8190918 36.81518555 C41.69012499 33.38893945 37.53360575 30.01776353 33.27734375 26.75 C25.02667456 20.40986312 16.88354076 13.92681785 8.75 7.4375 C8.10595215 6.92485596 7.4619043 6.41221191 6.79833984 5.8840332 C4.4381294 3.99681783 2.13869622 2.13869622 0 0 Z " fill="#C5101D" transform="translate(308,301)"/>
<path d="M0 0 C17.68983137 -0.0936013 35.37959813 -0.16405638 53.06962395 -0.20724869 C61.28413058 -0.22784014 69.498483 -0.25589501 77.71289062 -0.30175781 C84.87579491 -0.34173065 92.03858746 -0.36745764 99.20160019 -0.37635398 C102.99149358 -0.38155115 106.78106742 -0.39369413 110.570858 -0.42292023 C114.14466507 -0.45025503 117.71802374 -0.45840903 121.29192543 -0.45243073 C123.21520867 -0.45404017 125.13844409 -0.47546788 127.06159973 -0.49768066 C138.64471455 -0.44307942 146.40681887 2.56038873 154.796875 10.5546875 C161.1836084 17.64350861 163.41518449 24.67299091 163.265625 34.0703125 C162.081358 47.13208087 151.98375246 56.58529911 142.65234375 64.83203125 C141.77707031 65.54746094 140.90179687 66.26289063 140 67 C139.53601807 67.51336914 139.07203613 68.02673828 138.59399414 68.55566406 C131.61093518 75.3235644 121.65242037 74.18213904 112.5625 74.125 C111.65716522 74.12469788 110.75183044 74.12439575 109.81906128 74.12408447 C97.47165251 74.04254718 87.74019429 73.50916049 78.46875 64.5703125 C77.91316406 63.98797852 77.35757813 63.40564453 76.78515625 62.80566406 C74.15506416 60.14535757 71.24158761 57.88352437 68.31933594 55.55444336 C66.11804091 53.7944075 63.95330671 51.99819522 61.796875 50.18359375 C55.60372263 44.97958324 49.25237144 39.97952566 42.88549805 34.9909668 C42.28390869 34.51957275 41.68231934 34.04817871 41.0625 33.5625 C40.16108276 32.85637573 40.16108276 32.85637573 39.24145508 32.13598633 C35.62660382 29.2977422 32.04842339 26.4213088 28.5 23.5 C24.33298903 20.0705131 20.1202682 16.70660033 15.875 13.375 C15.28315918 12.9104541 14.69131836 12.4459082 14.08154297 11.96728516 C9.9036021 8.69450664 5.70198692 5.45351006 1.4765625 2.2421875 C0.98929687 1.83226562 0.50203125 1.42234375 0 1 C0 0.67 0 0.34 0 0 Z " fill="#090908" transform="translate(398,337)"/>
<path d="M0 0 C1.21410049 -0.00524185 2.42820099 -0.0104837 3.67909241 -0.0158844 C6.24007403 -0.02229202 8.80108513 -0.020984 11.36206055 -0.01245117 C15.26860228 -0.00394231 19.17368068 -0.03272179 23.08007812 -0.06445312 C25.57421831 -0.06606538 28.06836108 -0.06548714 30.5625 -0.0625 C31.72418198 -0.07373398 32.88586395 -0.08496796 34.08274841 -0.09654236 C41.8448987 -0.03022293 47.32506922 0.96236517 53.37109375 6.1796875 C54.04011719 7.01693359 54.04011719 7.01693359 54.72265625 7.87109375 C55.41488281 8.70447266 55.41488281 8.70447266 56.12109375 9.5546875 C58.69906081 13.50373896 59.59877997 17.05512898 59.63818359 21.73950195 C59.6509433 22.77440262 59.663703 23.80930328 59.67684937 24.87556458 C59.67907501 25.98397202 59.68130066 27.09237946 59.68359375 28.234375 C59.69357895 29.95988838 59.69357895 29.95988838 59.70376587 31.72026062 C59.71388156 34.15195113 59.71858322 36.58366933 59.71826172 39.01538086 C59.72262824 42.72231186 59.75894325 46.42804567 59.796875 50.13476562 C59.80274478 52.50129803 59.80671309 54.86783607 59.80859375 57.234375 C59.82296478 58.33670975 59.83733582 59.43904449 59.85214233 60.57478333 C59.80373762 68.79023559 58.40439951 74.30737905 52.59765625 80.24609375 C44.85253896 85.45915346 38.10658984 85.88149884 29 85.83203125 C27.82933487 85.83490143 26.65866974 85.83777161 25.45252991 85.84072876 C22.98747267 85.84276276 20.52239906 85.83727958 18.05737305 85.82470703 C14.29373993 85.80863042 10.53117831 85.82458682 6.76757812 85.84375 C4.36588306 85.84176773 1.96418865 85.83792441 -0.4375 85.83203125 C-1.55745865 85.83810394 -2.6774173 85.84417664 -3.83131409 85.85043335 C-11.97480298 85.77742338 -18.02326613 84.64091653 -24.31140137 78.98498535 C-29.88545823 72.53612886 -30.24691626 64.85509465 -30.18359375 56.71484375 C-30.18742065 55.61692505 -30.19124756 54.51900635 -30.19519043 53.38781738 C-30.19789904 51.07835975 -30.19061201 48.76887089 -30.17382812 46.45947266 C-30.15240493 42.94363388 -30.17366734 39.42983844 -30.19921875 35.9140625 C-30.19657529 33.66015178 -30.19144994 31.40624233 -30.18359375 29.15234375 C-30.19169067 28.11146606 -30.1997876 27.07058838 -30.20812988 25.99816895 C-30.11810482 18.92012835 -29.08664859 12.4068828 -24.31140137 6.88220215 C-16.88703864 0.20427888 -9.50548118 -0.02397912 0 0 Z " fill="#FBFBFB" transform="translate(318.65234375,606.56640625)"/>
<path d="M0 0 C8.58 0 17.16 0 26 0 C33.72272815 15.1302429 40.86492037 30.52835085 48.03417969 45.92584229 C48.98457936 47.96688325 49.93557974 50.00764333 50.88671875 52.04833984 C52.65544737 55.84388956 54.42199203 59.64045127 56.1875 63.4375 C56.71561279 64.5728418 57.24372559 65.70818359 57.7878418 66.87792969 C58.28453369 67.94817383 58.78122559 69.01841797 59.29296875 70.12109375 C59.7211792 71.0433374 60.14938965 71.96558105 60.59057617 72.91577148 C62.42487696 76.92975414 64.20761215 80.96712734 66 85 C59.4 85 52.8 85 46 85 C44.68 82.23625 43.36 79.4725 42 76.625 C41.58234375 75.75568848 41.1646875 74.88637695 40.734375 73.99072266 C40.40953125 73.3054248 40.0846875 72.62012695 39.75 71.9140625 C39.24726562 70.8614624 39.24726562 70.8614624 38.734375 69.78759766 C38 68 38 68 38 66 C21.83 66 5.66 66 -11 66 C-11.99 68.97 -12.98 71.94 -14 75 C-15.54337179 78.41280804 -17.267494 81.67546147 -19 85 C-25.27 85 -31.54 85 -38 85 C-37.10119443 80.50597214 -35.75086627 76.98027068 -33.7890625 72.91796875 C-33.46514526 72.23545547 -33.14122803 71.5529422 -32.80749512 70.8497467 C-32.11252505 69.38676773 -31.41508032 67.9249622 -30.71539307 66.4642334 C-29.24262192 63.38909714 -27.7821293 60.30818954 -26.32125854 57.22738647 C-25.58608684 55.6770079 -24.85034837 54.12689795 -24.11404419 52.57705688 C-21.06646747 46.15800019 -18.0762314 39.71395376 -15.125 33.25 C-14.48268433 31.8436731 -14.48268433 31.8436731 -13.82739258 30.40893555 C-12.54962867 27.60684743 -11.27448578 24.80358049 -10 22 C-9.03516964 19.88020224 -8.07032561 17.7604107 -7.10546875 15.640625 C-4.73366098 10.42858074 -2.36699173 5.21424266 0 0 Z " fill="#F9F9F9" transform="translate(736,607)"/>
<path d="M0 0 C4.52458648 3.22281998 8.77113791 6.62827781 12.875 10.375 C16.82086189 13.97462893 20.87085882 17.35268938 25.0625 20.66015625 C28.76310187 23.60784311 32.41346648 26.61385756 36.0625 29.625 C36.78735596 30.223125 37.51221191 30.82125 38.2590332 31.4375 C39.75432724 32.67159658 41.24952466 33.90581023 42.74462891 35.14013672 C44.96674748 36.97257873 47.19180351 38.80138335 49.41796875 40.62890625 C58.00615888 47.68142785 66.56604192 54.76311984 75 62 C75.6173703 62.48787491 76.2347406 62.97574982 76.87081909 63.47840881 C82.01577139 67.67879683 85.07282799 71.78138057 87.97265625 77.71875 C88.39144547 78.54564331 88.81023468 79.37253662 89.24171448 80.2244873 C93.28071034 88.31518703 96.87828764 96.59058596 100.36404419 104.93157959 C102.25410476 109.45386183 104.17118142 113.96469396 106.0859375 118.4765625 C106.4813826 119.41001495 106.8768277 120.34346741 107.28425598 121.3052063 C112.72039754 134.10309256 118.40051549 146.79446315 124.07006836 159.49023438 C124.83969235 161.22004703 125.60930556 162.94986448 126.37890625 164.6796875 C126.73220001 165.46628754 127.08549377 166.25288757 127.44949341 167.06332397 C127.77239349 167.78992218 128.09529358 168.51652039 128.42797852 169.26513672 C128.70899918 169.89346405 128.99001984 170.52179138 129.27955627 171.16915894 C130.03512262 173.08925602 130.54284726 174.98980586 131 177 C126.83215186 173.4804838 122.76545239 169.88033354 118.75 166.1875 C115.12808519 162.87645799 111.45068049 159.69781334 107.625 156.625 C102.8168848 152.74549074 98.26924648 148.6487587 93.76611328 144.42431641 C93.00983643 143.7154126 93.00983643 143.7154126 92.23828125 142.9921875 C91.72160889 142.50371338 91.20493652 142.01523926 90.67260742 141.51196289 C89.51247174 140.46325172 88.31343921 139.4566224 87.0871582 138.48608398 C81.04647521 133.62560464 77.4634842 127.9537461 73.5625 121.3125 C72.87376373 120.16389221 72.18362566 119.01612397 71.4921875 117.86914062 C70.0466449 115.46710397 68.60856495 113.06083721 67.17626953 110.65087891 C64.00919925 105.32764123 60.78347073 100.04009121 57.56341553 94.74880981 C56.49407623 92.99025823 55.42665416 91.23055753 54.35986328 89.47045898 C47.62546436 78.36075674 40.81691463 67.29717991 33.99707031 56.23974609 C31.27689611 51.82694516 28.56185614 47.41099436 25.84667969 42.99511719 C23.2045468 38.69895583 20.56008658 34.40423064 17.91503906 30.10986328 C16.63776494 28.03567693 15.36107266 25.96113217 14.08496094 23.88623047 C12.28770956 20.96464335 10.48794499 18.0446198 8.6875 15.125 C7.88759644 13.82308716 7.88759644 13.82308716 7.0715332 12.49487305 C6.33036255 11.29471558 6.33036255 11.29471558 5.57421875 10.0703125 C4.93359497 9.03028076 4.93359497 9.03028076 4.2800293 7.96923828 C2.99545395 5.93128968 2.99545395 5.93128968 1.33911133 3.87060547 C0 2 0 2 0 0 Z " fill="#970B18" transform="translate(375,382)"/>
<path d="M0 0 C1.26108078 0.00007553 2.52216156 0.00015106 3.82145691 0.00022888 C5.19778482 0.0053355 6.57411234 0.0105515 7.95043945 0.01586914 C9.35862681 0.01773453 10.76681481 0.01915786 12.17500305 0.02015686 C15.878894 0.02397251 19.58274566 0.03379467 23.28662109 0.04486084 C27.06713326 0.05509542 30.84765179 0.05965887 34.62817383 0.06469727 C42.04420943 0.0754178 49.46020455 0.09300689 56.8762207 0.11352539 C56.8762207 5.39352539 56.8762207 10.67352539 56.8762207 16.11352539 C54.31759277 16.13539917 54.31759277 16.13539917 51.70727539 16.15771484 C46.06728835 16.20939064 40.4275687 16.27468304 34.78783798 16.3492403 C31.36891798 16.39394094 27.95011705 16.43319726 24.53100586 16.45996094 C20.59894341 16.49097951 16.66738444 16.54576892 12.7355957 16.60180664 C11.50943542 16.60819656 10.28327515 16.61458649 9.0199585 16.62117004 C7.87907776 16.6409642 6.73819702 16.66075836 5.56274414 16.68115234 C4.55902771 16.6922554 3.55531128 16.70335846 2.5211792 16.71479797 C-0.59115621 16.97026242 -0.59115621 16.97026242 -4.1237793 20.11352539 C-4.4537793 25.06352539 -4.7837793 30.01352539 -5.1237793 35.11352539 C13.6862207 35.11352539 32.4962207 35.11352539 51.8762207 35.11352539 C51.8762207 40.06352539 51.8762207 45.01352539 51.8762207 50.11352539 C33.0662207 50.11352539 14.2562207 50.11352539 -5.1237793 50.11352539 C-4.7937793 55.06352539 -4.4637793 60.01352539 -4.1237793 65.11352539 C0.05916028 68.25073007 0.76270695 68.49272633 5.65454102 68.54589844 C6.8154425 68.5656926 7.97634399 68.58548676 9.17242432 68.60588074 C11.0444754 68.61546562 11.0444754 68.61546562 12.9543457 68.62524414 C14.87691193 68.65217094 14.87691193 68.65217094 16.83831787 68.67964172 C20.23798526 68.72709107 23.63758653 68.75693267 27.03747559 68.78308105 C30.50989847 68.81291252 33.9820936 68.85943385 37.4543457 68.90454102 C44.26152285 68.99051622 51.06874141 69.05634358 57.8762207 69.11352539 C57.8762207 74.39352539 57.8762207 79.67352539 57.8762207 85.11352539 C49.6870843 85.20420964 41.498344 85.27746056 33.30883884 85.32077408 C29.50534338 85.34157157 25.70221185 85.36974347 21.89892578 85.4152832 C18.2225027 85.45902404 14.54642772 85.48272132 10.86976433 85.49303436 C9.47323064 85.50037553 8.07671411 85.51471022 6.68033028 85.53644562 C-2.33145443 85.67102822 -10.38212359 85.51158285 -17.2800293 79.11352539 C-17.7234668 78.45352539 -18.1669043 77.79352539 -18.6237793 77.11352539 C-19.0878418 76.45352539 -19.5519043 75.79352539 -20.0300293 75.11352539 C-22.02095926 71.47296775 -22.2581655 68.05712804 -22.31665039 63.95288086 C-22.33271332 62.92436005 -22.34877625 61.89583923 -22.36532593 60.83615112 C-22.41005629 56.12978962 -22.45085456 51.42356578 -22.47387695 46.71704102 C-22.49040741 44.24201028 -22.51765847 41.7670267 -22.5559082 39.29223633 C-22.61095424 35.70897856 -22.63259615 32.12683779 -22.6472168 28.54321289 C-22.66988617 27.44806366 -22.69255554 26.35291443 -22.71591187 25.22457886 C-22.69607206 17.93313387 -21.4528138 12.11600875 -17.1237793 6.11352539 C-11.75398153 1.68342085 -6.95832473 -0.01388887 0 0 Z " fill="#FBFBFB" transform="translate(520.123779296875,606.886474609375)"/>
<path d="M0 0 C10.725 -0.0825 21.45 -0.165 32.5 -0.25 C37.55924805 -0.30462402 37.55924805 -0.30462402 42.72070312 -0.36035156 C45.40754561 -0.37203898 48.0943952 -0.38223068 50.78125 -0.390625 C51.47021362 -0.40107849 52.15917725 -0.41153198 52.86901855 -0.42230225 C69.0344962 -0.65508437 69.0344962 -0.65508437 75.50646973 5.41229248 C81.76497254 12.38730483 81.36552652 19.42164284 81.375 28.3125 C81.39949219 29.51068359 81.42398438 30.70886719 81.44921875 31.94335938 C81.47293379 39.11715906 80.97031118 43.95575168 77 50 C72.78067357 53.95013818 68.59732009 55.74345876 63 57 C66.16703336 61.96789546 69.74262251 66.46729064 73.5 71 C77.25737749 75.53270936 80.83296664 80.03210454 84 85 C66.66335119 86.62492022 66.66335119 86.62492022 60.984375 83.16015625 C58.70505465 80.56517463 56.85097199 77.91429633 55 75 C53.66980769 73.29353815 52.31456849 71.60636368 50.9375 69.9375 C50.21046875 69.03644531 49.4834375 68.13539063 48.734375 67.20703125 C44.58781856 62.23664497 40.05580818 57.601046 35.58374023 52.92553711 C34.92059814 52.23081299 34.25745605 51.53608887 33.57421875 50.8203125 C32.98213623 50.20430176 32.39005371 49.58829102 31.7800293 48.95361328 C29.74251048 46.71740075 27.86857537 44.37828021 26 42 C27.00901367 41.98541748 28.01802734 41.97083496 29.05761719 41.95581055 C32.80764891 41.89775886 36.55708446 41.82052708 40.30664062 41.73754883 C41.92828686 41.70433165 43.55004781 41.67628965 45.171875 41.65356445 C47.50570477 41.61995845 49.83848635 41.5676424 52.171875 41.51171875 C53.25647003 41.50213387 53.25647003 41.50213387 54.36297607 41.49235535 C57.44253174 41.40276554 59.70959195 41.1525364 62.45605469 39.70996094 C65.07762563 36.80650064 64.57464496 33.26675627 64.5 29.5625 C64.51546875 28.79873047 64.5309375 28.03496094 64.546875 27.24804688 C64.53914063 26.13719727 64.53914063 26.13719727 64.53125 25.00390625 C64.52673828 24.33174072 64.52222656 23.6595752 64.51757812 22.96704102 C63.70232397 19.86869066 62.64045078 18.84012381 60 17 C56.81234902 16.38886864 53.66042842 16.39474605 50.421875 16.390625 C49.18945068 16.36718018 49.18945068 16.36718018 47.93212891 16.34326172 C44.87171139 16.29077807 41.81078543 16.27241496 38.75 16.25 C28.47875 16.12625 28.47875 16.12625 18 16 C18 38.77 18 61.54 18 85 C12.06 85 6.12 85 0 85 C0 56.95 0 28.9 0 0 Z " fill="#FAFBFA" transform="translate(188,607)"/>
<path d="M0 0 C0.66 0.33 1.32 0.66 2 1 C2.495 2.485 2.495 2.485 3 4 C2.34 4 1.68 4 1 4 C1.495 5.485 1.495 5.485 2 7 C2 8.32 2 9.64 2 11 C2.66 11 3.32 11 4 11 C4 11.66 4 12.32 4 13 C4.66 13.33 5.32 13.66 6 14 C5.34 14.99 4.68 15.98 4 17 C3.34 17 2.68 17 2 17 C2 17.99 2 18.98 2 20 C4.01432266 19.49743888 4.01432266 19.49743888 6 18 C6.33 16.845 6.66 15.69 7 14.5 C8 11 8 11 10.0625 9.78125 C11.0215625 9.39453125 11.0215625 9.39453125 12 9 C18.54403874 14.63888198 24.2610238 20.28365988 29.62109375 27.08203125 C32.28785274 30.35308045 35.11248966 33.4249125 38 36.5 C42.47660126 41.27902679 46.67791438 46.20172496 50.78125 51.30859375 C53.94666457 55.14833079 57.30673091 58.7964401 60.671875 62.4609375 C69.07836905 71.62909377 77.05508348 81.20015914 85.125 90.6640625 C89.60804283 95.91572853 94.09950476 101.14482512 98.75 106.25 C103.05881146 110.99205576 107.05770851 115.95128883 111 121 C109 122 109 122 107.00732422 121.38598633 C94.44434038 115.98737979 83.37363943 110.17030231 72.79980469 101.47607422 C70.50710635 99.59576302 68.17002406 97.77629478 65.83032227 95.95507812 C64.11128072 94.61429955 62.40060059 93.26345894 60.69140625 91.91015625 C56.50314928 88.60002687 52.28146824 85.33332541 48.0625 82.0625 C41.86493895 77.2542163 35.7204319 72.3867489 29.61132812 67.46679688 C24.98542678 63.75526073 20.2867959 60.14763057 15.5625 56.5625 C9.18272629 51.71947069 2.93376817 46.74066105 -3.26147461 41.66430664 C-7.28969984 38.36984549 -11.36143413 35.15489196 -15.5 32 C-20.58026774 28.11022107 -25.62466853 24.17966383 -30.625 20.1875 C-31.31271484 19.64802734 -32.00042969 19.10855469 -32.70898438 18.55273438 C-36.28636434 15.67582042 -38.93301488 13.20390583 -41 9 C-40.484375 8.5875 -39.96875 8.175 -39.4375 7.75 C-38.7259375 6.88375 -38.7259375 6.88375 -38 6 C-38.22757731 3.83700789 -38.22757731 3.83700789 -39 2 C-31.25 2.75 -31.25 2.75 -29 5 C-28.30251417 6.31747324 -27.63040043 7.64914193 -27 9 C-26.4225 8.79375 -25.845 8.5875 -25.25 8.375 C-22.48032433 7.91338739 -21.35438733 8.57055055 -19 10 C-19.04125 10.763125 -19.0825 11.52625 -19.125 12.3125 C-19.22080824 15.22718416 -19.22080824 15.22718416 -17 18 C-16.875 20.6875 -16.875 20.6875 -17 23 C-13.64564078 21.61198929 -11.88709697 20.11371 -10 17 C-10 16.01 -10 15.02 -10 14 C-9.21625 13.54625 -8.4325 13.0925 -7.625 12.625 C-4.86036684 11.19496477 -4.86036684 11.19496477 -3.5625 8.5625 C-2.75690615 6.00645482 -2.75690615 6.00645482 -3.875 3.6875 C-4.24625 3.130625 -4.6175 2.57375 -5 2 C-4.360625 1.855625 -3.72125 1.71125 -3.0625 1.5625 C-1.02454854 1.18992819 -1.02454854 1.18992819 0 0 Z M-19 24 C-18.67 24.66 -18.34 25.32 -18 26 C-17.67 25.34 -17.34 24.68 -17 24 C-17.66 24 -18.32 24 -19 24 Z " fill="#AA0D1A" transform="translate(537,440)"/>
<path d="M0 0 C5.94 0 11.88 0 18 0 C23.66824298 10.46080751 29.00605673 20.97370329 33.81201172 31.85961914 C36.44930379 37.82303079 39.26849675 43.645057 42.2265625 49.45703125 C45.62115408 56.23873734 48.79628125 63.12656704 52 70 C52.31001953 69.30479248 52.62003906 68.60958496 52.93945312 67.89331055 C59.7704489 52.5869581 66.65999057 37.30836752 73.625 22.0625 C73.97183838 21.30238617 74.31867676 20.54227234 74.67602539 19.75912476 C75.67080108 17.57973406 76.66714679 15.40106874 77.6640625 13.22265625 C77.95733429 12.58000824 78.25060608 11.93736023 78.55276489 11.27523804 C80.29608006 7.47268972 82.12752516 3.74494968 84 0 C90.27 0 96.54 0 103 0 C95.5169319 17.90591296 87.31737051 35.42837908 78.97753906 52.94598389 C78.0346682 54.92715479 77.09326905 56.90901776 76.15234375 58.89111328 C74.50177086 62.36700115 72.84562579 65.84020782 71.1875 69.3125 C70.70240967 70.33118164 70.21731934 71.34986328 69.7175293 72.39941406 C69.04330933 73.80465332 69.04330933 73.80465332 68.35546875 75.23828125 C67.97028076 76.04305908 67.58509277 76.84783691 67.18823242 77.67700195 C66.79611572 78.44359131 66.40399902 79.21018066 66 80 C65.56623047 80.91313965 65.13246094 81.8262793 64.68554688 82.76708984 C63 85 63 85 60.5480957 85.56762695 C59.60023193 85.54144287 58.65236816 85.51525879 57.67578125 85.48828125 C56.13374023 85.46411133 56.13374023 85.46411133 54.56054688 85.43945312 C53.48869141 85.39755859 52.41683594 85.35566406 51.3125 85.3125 C50.22904297 85.28994141 49.14558594 85.26738281 48.02929688 85.24414062 C45.35148095 85.1851579 42.67642973 85.10290307 40 85 C33.88964348 73.94767554 28.44245407 62.65198124 23.17138672 51.17749023 C18.46779528 40.94757858 13.59870131 30.80342708 8.66918945 20.68066406 C0 2.84386685 0 2.84386685 0 0 Z " fill="#FAFAFA" transform="translate(386,607)"/>
<path d="M0 0 C1.00824326 -0.00145523 2.01648651 -0.00291046 3.05528259 -0.00440979 C5.18442681 -0.00275123 7.31358307 0.00880514 9.44262695 0.02954102 C12.70640799 0.05851885 15.96856732 0.05014413 19.23242188 0.03710938 C21.30078916 0.04334606 23.36915132 0.05173645 25.4375 0.0625 C26.41566177 0.05956436 27.39382355 0.05662872 28.40162659 0.05360413 C29.30944382 0.0662883 30.21726105 0.07897247 31.15258789 0.09204102 C32.3502755 0.10014549 32.3502755 0.10014549 33.57215881 0.1084137 C36.18674741 0.59568953 37.0444031 1.41003543 38.65234375 3.49609375 C39.96926055 7.44684414 39.83471657 11.24308737 39.85546875 15.36328125 C39.86116882 16.23501984 39.8668689 17.10675842 39.8727417 18.00491333 C39.88218558 19.84912911 39.88872325 21.69336172 39.89257812 23.53759766 C39.90228308 26.35349061 39.93331161 29.16865334 39.96484375 31.984375 C39.97137418 33.77733942 39.9766245 35.57030906 39.98046875 37.36328125 C39.99281555 38.20301483 40.00516235 39.04274841 40.0178833 39.90792847 C40.0001111 44.59078289 39.71098667 47.6993182 36.65234375 51.49609375 C34.33176103 52.65638511 32.94255601 52.64059688 30.35791016 52.6730957 C29.47003815 52.68593094 28.58216614 52.69876617 27.66738892 52.71199036 C26.70593964 52.71937729 25.74449036 52.72676422 24.75390625 52.734375 C23.76740082 52.74244675 22.78089539 52.75051849 21.76449585 52.75883484 C19.67472087 52.77267913 17.58492324 52.78339973 15.49511719 52.79125977 C12.29709159 52.80848737 9.1000957 52.85237235 5.90234375 52.89648438 C3.87370553 52.90660984 1.84505851 52.9151264 -0.18359375 52.921875 C-1.61969498 52.94813713 -1.61969498 52.94813713 -3.08480835 52.97492981 C-6.89805823 52.96245361 -9.56492909 52.92006484 -12.94970703 51.08666992 C-15.13905602 47.02953019 -14.91847561 43.16231721 -14.87890625 38.62109375 C-14.88273315 37.65961426 -14.88656006 36.69813477 -14.89050293 35.70751953 C-14.89322227 33.67674715 -14.88585954 31.64593976 -14.86914062 29.61523438 C-14.8477315 26.50701805 -14.86894171 23.40111319 -14.89453125 20.29296875 C-14.89188798 18.31900532 -14.88676301 16.34504332 -14.87890625 14.37109375 C-14.88700317 13.44184082 -14.8951001 12.51258789 -14.90344238 11.55517578 C-14.84932225 7.83074264 -14.73654241 5.22148045 -12.96118164 1.90991211 C-8.77549045 -0.35438847 -4.68341216 -0.05389953 0 0 Z " fill="#090909" transform="translate(321.34765625,623.50390625)"/>
<path d="M0 0 C29.27483022 -0.04565212 58.54965792 -0.08103326 87.82451647 -0.10213066 C91.282832 -0.10463199 94.74114746 -0.10722064 98.19946289 -0.10986328 C99.23216972 -0.11065021 99.23216972 -0.11065021 100.28573931 -0.11145304 C111.42472856 -0.12014915 122.5636971 -0.13591475 133.70267408 -0.15430559 C145.13731336 -0.17302675 156.57193586 -0.18397176 168.0065909 -0.18817699 C174.42713836 -0.19078372 180.8476389 -0.19690824 187.26817131 -0.21146011 C193.3132308 -0.2250498 199.35822411 -0.2292198 205.40329742 -0.22621536 C207.62001213 -0.2267649 209.83672908 -0.23073403 212.05343056 -0.23841095 C215.08505314 -0.2483938 218.11642743 -0.24595661 221.14805603 -0.24050903 C222.45694626 -0.24924756 222.45694626 -0.24924756 223.79227871 -0.25816262 C242.26300167 -0.16874655 258.50223483 7.85139683 271.8125 20.25 C283.96180376 33.13494967 290.26937105 49.77504726 290.0625 67.375 C290.05798828 68.11105469 290.05347656 68.84710938 290.04882812 69.60546875 C290.03715142 71.40368158 290.01922011 73.20185197 290 75 C289.67 75 289.34 75 289 75 C288.96261719 74.34515625 288.92523437 73.6903125 288.88671875 73.015625 C288.42417935 66.5944898 287.30921124 60.64489687 285.62109375 54.43359375 C285 52 285 52 285 50 C284.34 49.67 283.68 49.34 283 49 C283 47.33333333 283 45.66666667 283 44 C282.34 44 281.68 44 281 44 C280.67 43.01 280.34 42.02 280 41 C279.01 40.67 278.02 40.34 277 40 C276.09162237 37.52260646 276 35.66420516 276 33 C275.34 32.01 274.68 31.02 274 30 C273.01 30.33 272.02 30.66 271 31 C268.8125 30.5625 268.8125 30.5625 267 30 C267 29.34 267 28.68 267 28 C268.32 27.34 269.64 26.68 271 26 C269.68 25.67 268.36 25.34 267 25 C265.875 21.25 265.875 21.25 267 19 C266.34 19 265.68 19 265 19 C264.67 19.99 264.34 20.98 264 22 C263.34 21.34 262.68 20.68 262 20 C262.33 19.34 262.66 18.68 263 18 C261.02 18.33 259.04 18.66 257 19 C257.33 17.35 257.66 15.7 258 14 C256.35 13.01 254.7 12.02 253 11 C252.67 11.99 252.34 12.98 252 14 C249.4375 15.1875 249.4375 15.1875 247 16 C247.66 14.35 248.32 12.7 249 11 C248.01 11 247.02 11 246 11 C245.67 10.34 245.34 9.68 245 9 C244.01 8.67 243.02 8.34 242 8 C242 7.34 242 6.68 242 6 C239.65466049 5.23043864 239.65466049 5.23043864 237 5 C235.2912354 6.37514541 235.2912354 6.37514541 234 8 C233.34 8 232.68 8 232 8 C231.67 6.35 231.34 4.7 231 3 C228.36 2.67 225.72 2.34 223 2 C222.67 2.66 222.34 3.32 222 4 C221.34 4 220.68 4 220 4 C219.34 4.99 218.68 5.98 218 7 C217.34 7 216.68 7 216 7 C215.67 6.01 215.34 5.02 215 4 C213.68 4.66 212.36 5.32 211 6 C210.67 4.68 210.34 3.36 210 2 C192.51 2 175.02 2 157 2 C156.67 3.98 156.34 5.96 156 8 C156.99 8.99 156.99 8.99 158 10 C157.34 10.99 156.68 11.98 156 13 C156.99 13.33 157.98 13.66 159 14 C158.01 14.66 157.02 15.32 156 16 C156.99 17.485 156.99 17.485 158 19 C157.8125 21.125 157.8125 21.125 157 23 C156.01 23.33 155.02 23.66 154 24 C154.433125 24.433125 154.86625 24.86625 155.3125 25.3125 C156.875 26.875 158.4375 28.4375 160 30 C159.34 30.66 158.68 31.32 158 32 C156.33333333 32 154.66666667 32 153 32 C153 32.66 153 33.32 153 34 C179.07 34 205.14 34 232 34 C231.67 34.66 231.34 35.32 231 36 C184.14 35.67 137.28 35.34 89 35 C89 34.67 89 34.34 89 34 C89.61488281 33.97421875 90.22976563 33.9484375 90.86328125 33.921875 C95.86073185 33.72044554 95.86073185 33.72044554 99.9375 31.1875 C100.288125 30.465625 100.63875 29.74375 101 29 C101.391875 28.2575 101.78375 27.515 102.1875 26.75 C102.455625 26.1725 102.72375 25.595 103 25 C103.66 25 104.32 25 105 25 C104.505 23.515 104.505 23.515 104 22 C107.40562852 21.22157062 110.50765756 20.90021879 114 21 C114.144375 20.195625 114.28875 19.39125 114.4375 18.5625 C115 16 115 16 116 15 C115.01 15 114.02 15 113 15 C113 15.99 113 16.98 113 18 C111.68 18.33 110.36 18.66 109 19 C109.33 17.68 109.66 16.36 110 15 C109.01 15 108.02 15 107 15 C106.67 15.66 106.34 16.32 106 17 C106.33 15.35 106.66 13.7 107 12 C105.68 11.67 104.36 11.34 103 11 C103.33 9.68 103.66 8.36 104 7 C103.34 7 102.68 7 102 7 C102 6.34 102 5.68 102 5 C100.68 5.33 99.36 5.66 98 6 C98.33 5.34 98.66 4.68 99 4 C101.0625 3.375 101.0625 3.375 103 3 C80.48410454 1.96541895 57.9719051 1.91156485 35.4375 1.9375 C34.31398573 1.93878403 34.31398573 1.93878403 33.1677742 1.94009399 C23.77849296 1.9516103 14.38924713 1.97186422 5 2 C5.33 2.66 5.66 3.32 6 4 C3.53199953 2.84826645 1.95216435 1.95216435 0 0 Z " fill="#CD1320" transform="translate(308,301)"/>
<path d="M0 0 C18.31546122 -2.04797734 18.31546122 -2.04797734 23.9765625 1.09863281 C27.28804501 3.98418188 29.61051542 7.5399335 31.89697266 11.26025391 C33.54520639 13.8599249 35.51373622 16.15322762 37.5 18.5 C38.21285156 19.3765625 38.92570313 20.253125 39.66015625 21.15625 C42.8512285 25.03454816 46.1040901 28.85935656 49.37109375 32.67382812 C51.39966777 35.05327468 53.26271453 37.39407179 55 40 C54.65798009 43.19179001 53.39748513 45.07347667 51.375 47.50390625 C50.5694165 48.48254639 50.5694165 48.48254639 49.74755859 49.48095703 C49.17086426 50.16786621 48.59416992 50.85477539 48 51.5625 C47.40912598 52.27776855 46.81825195 52.99303711 46.20947266 53.72998047 C44.47837428 55.82452947 42.73953336 57.91245624 41 60 C39.45584817 61.87295388 37.91380852 63.74765361 36.375 65.625 C35.653125 66.46933594 34.93125 67.31367187 34.1875 68.18359375 C32.48082696 70.38093529 31.16960143 72.38693344 29.8125 74.78515625 C25.11336435 82.56770663 25.11336435 82.56770663 21 85 C13.474438 86.68919283 5.59820884 85.87159587 -2 85 C-0.38182825 81.59170063 1.47765964 79.20469242 4.0625 76.4375 C7.33018473 72.87703072 10.46479193 69.2606708 13.5 65.5 C16.47291709 61.82665742 19.5173488 58.25468977 22.6875 54.75 C23.42097656 53.93789063 24.15445313 53.12578125 24.91015625 52.2890625 C26.23826761 50.83434613 27.57819664 49.39026537 28.93359375 47.9609375 C30.81650429 45.97511834 30.81650429 45.97511834 33 43 C32.77269964 39.20643545 30.56651211 36.94552247 28.1875 34.125 C27.37410156 33.155625 26.56070313 32.18625 25.72265625 31.1875 C24.81609472 30.1241547 23.90850698 29.06168362 23 28 C22.53062012 27.44957031 22.06124023 26.89914062 21.57763672 26.33203125 C19.08661342 23.41261541 16.58847705 20.4993915 14.0859375 17.58984375 C10.96631269 13.9622112 7.85226388 10.32999444 4.75 6.6875 C4.27191895 6.1301416 3.79383789 5.5727832 3.30126953 4.99853516 C0 1.11461665 0 1.11461665 0 0 Z " fill="#FAFAFA" transform="translate(593,607)"/>
<path d="M0 0 C5.94 0 11.88 0 18 0 C18 28.05 18 56.1 18 85 C12.06 85 6.12 85 0 85 C0 56.95 0 28.9 0 0 Z " fill="#F7F7F7" transform="translate(818,607)"/>
<path d="M0 0 C4.52458648 3.22281998 8.77113791 6.62827781 12.875 10.375 C16.82086189 13.97462893 20.87085882 17.35268938 25.0625 20.66015625 C28.76310187 23.60784311 32.41346648 26.61385756 36.0625 29.625 C36.78735596 30.223125 37.51221191 30.82125 38.2590332 31.4375 C39.75432724 32.67159658 41.24952466 33.90581023 42.74462891 35.14013672 C44.96674748 36.97257873 47.19180351 38.80138335 49.41796875 40.62890625 C57.0528829 46.89860873 64.67310772 53.18289865 72.18359375 59.6015625 C73.93315111 61.09147681 75.69422897 62.56810522 77.47265625 64.0234375 C81.41954416 67.30415376 84.25669234 70.00251805 86 75 C85.67 75.66 85.34 76.32 85 77 C84.773125 76.21625 84.54625 75.4325 84.3125 74.625 C83.21875 71.78125 83.21875 71.78125 80.375 70.6875 C79.59125 70.460625 78.8075 70.23375 78 70 C77.4225 70.639375 76.845 71.27875 76.25 71.9375 C74.01937599 73.98223868 72.92563609 74.58205199 70 75 C69.04975021 71.30458414 69.04975021 68.69541586 70 65 C70.66 65 71.32 65 72 65 C72 64.01 72 63.02 72 62 C69.66834966 61.66501699 69.66834966 61.66501699 67 62 C66.0409375 63.0209375 66.0409375 63.0209375 65.0625 64.0625 C64.381875 64.701875 63.70125 65.34125 63 66 C60 65.625 60 65.625 57 65 C55.65863633 65.65035814 54.32467746 66.3162955 53 67 C50.25 66.625 50.25 66.625 48 66 C47.67 66.66 47.34 67.32 47 68 C46.67 67.67 46.34 67.34 46 67 C46 69.31 46 71.62 46 74 C43.50773157 71.70703923 41.83980295 69.31380796 40.1015625 66.4140625 C39.26902954 65.03420166 39.26902954 65.03420166 38.41967773 63.62646484 C37.82743408 62.63598145 37.23519043 61.64549805 36.625 60.625 C35.35876089 58.52562656 34.09181884 56.42667696 32.82421875 54.328125 C32.18403809 53.26658203 31.54385742 52.20503906 30.88427734 51.11132812 C28.09962004 46.51328812 25.27269773 41.9419977 22.4375 37.375 C21.91317383 36.53026123 21.38884766 35.68552246 20.84863281 34.81518555 C19.78347111 33.09921853 18.71820379 31.38331708 17.65283203 29.66748047 C15.89763095 26.83478815 14.14934263 23.99791377 12.40234375 21.16015625 C11.81203369 20.20254395 11.22172363 19.24493164 10.61352539 18.25830078 C9.48234705 16.42293574 8.35255265 14.58671678 7.22436523 12.74951172 C6.71462158 11.92338379 6.20487793 11.09725586 5.6796875 10.24609375 C5.23351074 9.52091553 4.78733398 8.7957373 4.32763672 8.04858398 C3.00411038 5.9414736 3.00411038 5.9414736 1.33251953 3.85961914 C0 2 0 2 0 0 Z " fill="#A90E1B" transform="translate(375,382)"/>
<path d="M0 0 C4.52458648 3.22281998 8.77113791 6.62827781 12.875 10.375 C16.81331521 13.96774444 20.85456691 17.34054961 25.0390625 20.640625 C28.87430147 23.69667294 32.65559047 26.8158516 36.4375 29.9375 C37.90363019 31.14715437 39.3697758 32.35679006 40.8359375 33.56640625 C41.89312988 34.43869873 41.89312988 34.43869873 42.97167969 35.32861328 C47.30397499 38.89853307 51.65151266 42.44983107 56 46 C55.01 46 54.02 46 53 46 C50.98848259 46.63106429 48.98636298 47.29373761 47 48 C45 44 45 44 45 42 C43.68 42 42.36 42 41 42 C40.34 44.64 39.68 47.28 39 50 C36.525 50.495 36.525 50.495 34 51 C34.66 51.66 35.32 52.32 36 53 C35.67 53.33 35.34 53.66 35 54 C35.99 54.495 35.99 54.495 37 55 C37.625 58.0625 37.625 58.0625 38 61 C35.50773157 58.70703923 33.83980295 56.31380796 32.1015625 53.4140625 C31.54605713 52.49334961 30.99055176 51.57263672 30.41821289 50.62402344 C29.82645264 49.6343457 29.23469238 48.64466797 28.625 47.625 C27.36656922 45.5386499 26.10743863 43.45272176 24.84765625 41.3671875 C24.20844238 40.30725586 23.56922852 39.24732422 22.91064453 38.15527344 C19.99158797 33.33468986 17.03124429 28.54009725 14.0625 23.75 C13.52415527 22.88020508 12.98581055 22.01041016 12.43115234 21.11425781 C9.06857942 15.69183408 5.66319188 10.30161531 2.171875 4.9609375 C1 3 1 3 0 0 Z " fill="#B6101E" transform="translate(375,382)"/>
<path d="M0 0 C4.24517526 1.61866395 6.94067136 4.79101844 9.9375 8.0625 C10.77825073 8.97394775 10.77825073 8.97394775 11.63598633 9.90380859 C27.42750175 27.32786832 27.42750175 27.32786832 32 37 C15.40116003 39.06665399 15.40116003 39.06665399 10.00390625 35.78710938 C6.47018306 32.60195072 3.83062878 28.7953927 1.23876953 24.83007812 C-0.56687552 22.16253471 -2.69666377 19.79932007 -4.8125 17.375 C-8.02443199 13.61812944 -8.02443199 13.61812944 -7.921875 11.0234375 C-6.7466041 8.44381748 -5.21924324 6.45288256 -3.4375 4.25 C-2.79683594 3.45078125 -2.15617188 2.6515625 -1.49609375 1.828125 C-1.00238281 1.22484375 -0.50867188 0.6215625 0 0 Z " fill="#C00D1B" transform="translate(652,655)"/>
<path d="M0 0 C1.24112549 0.01571045 1.24112549 0.01571045 2.50732422 0.03173828 C3.85117187 0.04140625 3.85117187 0.04140625 5.22216797 0.05126953 C6.62789062 0.07640625 6.62789062 0.07640625 8.06201172 0.10205078 C9.00689453 0.11107422 9.95177734 0.12009766 10.92529297 0.12939453 C13.26278464 0.15300556 15.59977295 0.18593562 17.93701172 0.22705078 C9.98540764 13.94636768 -0.70444112 25.27097182 -12.06298828 36.22705078 C-15.95152927 32.4430756 -19.005757 28.68187351 -22.06298828 24.22705078 C-21.60150391 23.72818359 -21.14001953 23.22931641 -20.66455078 22.71533203 C-15.95450029 17.53055313 -11.60722243 12.1556971 -7.38964844 6.57006836 C-2.64210769 0.29078818 -2.64210769 0.29078818 0 0 Z " fill="#DB111F" transform="translate(666.06298828125,606.77294921875)"/>
<path d="M0 0 C2.37904983 2.96078829 4.01866997 5.90778131 5.59375 9.359375 C6.06683594 10.39320313 6.53992188 11.42703125 7.02734375 12.4921875 C7.75630859 14.10480469 7.75630859 14.10480469 8.5 15.75 C9.22896484 17.33941406 9.22896484 17.33941406 9.97265625 18.9609375 C12.54119675 24.60192835 14.81619118 30.1765098 17 36 C6.11 36 -4.78 36 -16 36 C-10.85893082 23.89871408 -5.66745929 11.86339549 0 0 Z " fill="#080808" transform="translate(749,621)"/>
<path d="M0 0 C2.50736509 2.18031747 3.48600243 3.71041554 4 7 C4 9.66666667 4 12.33333333 4 15 C5.11375 14.95875 6.2275 14.9175 7.375 14.875 C11 15 11 15 13 17 C12.34 17.33 11.68 17.66 11 18 C10.92572162 21.34252724 10.93453047 23.8035914 12 27 C12.99 27.33 13.98 27.66 15 28 C15.33 31.63 15.66 35.26 16 39 C17.98 38.505 17.98 38.505 20 38 C20.66 38 21.32 38 22 38 C24 41 24 41 23.75 43.625 C23.5025 44.40875 23.255 45.1925 23 46 C22.01 46.495 22.01 46.495 21 47 C22.32 47 23.64 47 25 47 C25.99 47 26.98 47 28 47 C28.495 50.465 28.495 50.465 29 54 C26.03312999 55.64826111 23.34373475 56.44271087 20 57 C19.34 56.01 18.68 55.02 18 54 C15.9837767 54.71563266 15.9837767 54.71563266 14 56 C13.19471111 58.05000871 13.19471111 58.05000871 13 60 C11.68 60 10.36 60 9 60 C8.67 59.34 8.34 58.68 8 58 C7.01 58.495 7.01 58.495 6 59 C6.28617188 58.43410156 6.57234375 57.86820312 6.8671875 57.28515625 C11.18067062 48.58381961 13.77724173 41.09845069 11.33984375 31.36328125 C7.90385413 21.65028895 1.89698431 16.00465035 -7.05859375 11.2265625 C-7.69925781 10.82179688 -8.33992187 10.41703125 -9 10 C-9 9.34 -9 8.68 -9 8 C-7.35 8 -5.7 8 -4 8 C-3.896875 7.4225 -3.79375 6.845 -3.6875 6.25 C-2.90207202 3.67950842 -1.69495803 2.06342716 0 0 Z " fill="#CD0F1C" transform="translate(548,329)"/>
<path d="M0 0 C14.01951417 -0.84507118 27.32712283 8.55050727 37.5234375 17.12109375 C48.97952608 27.77564713 57.47375203 44.09497565 58.07446289 59.9675293 C58.09785879 62.10443653 58.08761687 64.2381342 58.0625 66.375 C58.05798828 67.11105469 58.05347656 67.84710938 58.04882812 68.60546875 C58.03715142 70.40368158 58.01922011 72.20185197 58 74 C57.67 74 57.34 74 57 74 C56.94392578 73.01773438 56.94392578 73.01773438 56.88671875 72.015625 C56.42417935 65.5944898 55.30921124 59.64489687 53.62109375 53.43359375 C53 51 53 51 53 49 C52.01 48.505 52.01 48.505 51 48 C51 46.33333333 51 44.66666667 51 43 C50.34 43 49.68 43 49 43 C48.67 42.01 48.34 41.02 48 40 C47.01 39.67 46.02 39.34 45 39 C44.09162237 36.52260646 44 34.66420516 44 32 C43.34 31.01 42.68 30.02 42 29 C41.01 29.33 40.02 29.66 39 30 C36.8125 29.5625 36.8125 29.5625 35 29 C35 28.34 35 27.68 35 27 C36.32 26.34 37.64 25.68 39 25 C37.68 24.67 36.36 24.34 35 24 C33.875 20.25 33.875 20.25 35 18 C34.34 18 33.68 18 33 18 C32.505 19.485 32.505 19.485 32 21 C31.34 20.34 30.68 19.68 30 19 C30.33 18.34 30.66 17.68 31 17 C29.02 17.33 27.04 17.66 25 18 C25.33 16.35 25.66 14.7 26 13 C23.525 11.515 23.525 11.515 21 10 C20.67 10.99 20.34 11.98 20 13 C17.4375 14.1875 17.4375 14.1875 15 15 C15.66 13.35 16.32 11.7 17 10 C16.01 10 15.02 10 14 10 C13.67 9.34 13.34 8.68 13 8 C12.01 7.67 11.02 7.34 10 7 C10 6.34 10 5.68 10 5 C7.65466049 4.23043864 7.65466049 4.23043864 5 4 C3.2912354 5.37514541 3.2912354 5.37514541 2 7 C1.34 7 0.68 7 0 7 C-1.125 2.25 -1.125 2.25 0 0 Z " fill="#E61624" transform="translate(540,302)"/>
<path d="M0 0 C5.47467034 3.89955569 10.45904652 8.16687047 15.41796875 12.69921875 C18.72846715 15.64911823 22.17892015 18.39242679 25.66015625 21.13671875 C28.84815927 23.6754123 31.92498895 26.32607734 35 29 C34.34 29.66 33.68 30.32 33 31 C32.4225 30.38125 31.845 29.7625 31.25 29.125 C29.19750179 27.18652947 27.56633418 26.09985751 25 25 C24.67 25.66 24.34 26.32 24 27 C23.01 26.67 22.02 26.34 21 26 C21.41246004 31.36198054 22.21323646 33.33157282 26 37 C26.75 40.25 26.75 40.25 27 43 C24.42919398 40.64909707 22.74527162 38.15184345 20.9609375 35.16796875 C20.09601685 33.73179199 20.09601685 33.73179199 19.21362305 32.26660156 C18.60687744 31.25049805 18.00013184 30.23439453 17.375 29.1875 C12.57556229 21.21228401 7.70003359 13.31613224 2.57421875 5.546875 C1 3 1 3 0 0 Z " fill="#C21422" transform="translate(375,382)"/>
<path d="M0 0 C-1.9044586 8.93630573 -1.9044586 8.93630573 -5 11 C-5.66 11 -6.32 11 -7 11 C-7.33 11.99 -7.66 12.98 -8 14 C-8.66 12.68 -9.32 11.36 -10 10 C-9.34 9.01 -8.68 8.02 -8 7 C-9.32 7.33 -10.64 7.66 -12 8 C-12.99 6.68 -13.98 5.36 -15 4 C-15.99 5.485 -15.99 5.485 -17 7 C-18.65821773 7.37309899 -20.32577014 7.70700977 -22 8 C-22.66 8.66 -23.32 9.32 -24 10 C-24.66 9.34 -25.32 8.68 -26 8 C-27.98 8.99 -27.98 8.99 -30 10 C-30 7.69 -30 5.38 -30 3 C-31.32 2.34 -32.64 1.68 -34 1 C-32.12567576 -0.87432424 -28.95349832 -0.26401045 -26.4453125 -0.3515625 C-25.45928543 -0.38629166 -25.45928543 -0.38629166 -24.45333862 -0.42172241 C-23.05963014 -0.46942371 -21.66583513 -0.51465018 -20.27197266 -0.55761719 C-18.14061383 -0.62450996 -16.00985014 -0.70234442 -13.87890625 -0.78125 C-12.52606357 -0.82618516 -11.17319934 -0.87047699 -9.8203125 -0.9140625 C-8.58555176 -0.9548291 -7.35079102 -0.9955957 -6.07861328 -1.03759766 C-3 -1 -3 -1 0 0 Z " fill="#B80D1B" transform="translate(531,412)"/>
<path d="M0 0 C21.05308332 -0.04669436 42.10615811 -0.08197626 63.15928268 -0.10362434 C72.93433105 -0.11394251 82.70934727 -0.12801318 92.484375 -0.15087891 C101.00301931 -0.17079623 109.52164034 -0.1837125 118.04030728 -0.18817699 C122.55201426 -0.19078718 127.06365462 -0.1969335 131.57534027 -0.21146011 C135.82043018 -0.22501783 140.06542593 -0.22922631 144.31053543 -0.22621536 C145.86981594 -0.22676634 147.42909955 -0.23075457 148.98836136 -0.23841095 C151.11530228 -0.24834397 153.24188648 -0.24597504 155.36883545 -0.24050903 C157.15527025 -0.24327441 157.15527025 -0.24327441 158.97779465 -0.24609566 C161.88731664 -0.00917571 163.54728916 0.47634022 166 2 C161.48382401 2.07654536 157.40914783 2.10228696 153 1 C152.67 1.66 152.34 2.32 152 3 C151.34 3 150.68 3 150 3 C149.34 3.99 148.68 4.98 148 6 C147.34 6 146.68 6 146 6 C145.67 5.01 145.34 4.02 145 3 C143.68 3.66 142.36 4.32 141 5 C140.67 3.68 140.34 2.36 140 1 C93.8 1 47.6 1 0 1 C0 0.67 0 0.34 0 0 Z " fill="#E20C1A" transform="translate(378,302)"/>
<path d="M0 0 C2.50736509 2.18031747 3.48600243 3.71041554 4 7 C4 9.66666667 4 12.33333333 4 15 C5.11375 14.95875 6.2275 14.9175 7.375 14.875 C11 15 11 15 13 17 C12.34 17.33 11.68 17.66 11 18 C10.92572162 21.34252724 10.93453047 23.8035914 12 27 C12.99 27.33 13.98 27.66 15 28 C14.85865273 30.89611544 14.7120847 33.7918081 14.5625 36.6875 C14.52318359 37.50412109 14.48386719 38.32074219 14.44335938 39.16210938 C14.23101997 43.19655811 13.95552078 47.05747309 13 51 C12.34 51 11.68 51 11 51 C11.165 50.236875 11.33 49.47375 11.5 48.6875 C12.86528985 38.61848736 12.31521761 30.42131851 6.52734375 21.80859375 C2.68063617 17.01612355 -1.66136833 14.1061552 -7.05859375 11.2265625 C-7.69925781 10.82179688 -8.33992187 10.41703125 -9 10 C-9 9.34 -9 8.68 -9 8 C-7.35 8 -5.7 8 -4 8 C-3.896875 7.4225 -3.79375 6.845 -3.6875 6.25 C-2.90207202 3.67950842 -1.69495803 2.06342716 0 0 Z " fill="#DD1927" transform="translate(548,329)"/>
<path d="M0 0 C-1.32 1.65 -2.64 3.3 -4 5 C-3.01 5.33 -2.02 5.66 -1 6 C-1.33 6.66 -1.66 7.32 -2 8 C-0.68 7.67 0.64 7.34 2 7 C2.99 8.485 2.99 8.485 4 10 C3.319375 10.7425 2.63875 11.485 1.9375 12.25 C-0.28353676 14.75949064 -0.28353676 14.75949064 0.25 17.3125 C0.62125 18.1478125 0.62125 18.1478125 1 19 C-2.32878679 19 -4.04130524 18.49520562 -7 17 C-9.01953125 14.8359375 -9.01953125 14.8359375 -10.8125 12.375 C-11.41707031 11.55773437 -12.02164062 10.74046875 -12.64453125 9.8984375 C-13.31548828 8.95871094 -13.31548828 8.95871094 -14 8 C-12.42853994 4.66850466 -10.78892837 2.45087645 -8 0 C-4.71023192 -1.09658936 -3.28696233 -0.79953138 0 0 Z " fill="#B90E1B" transform="translate(463,403)"/>
<path d="M0 0 C6.93 0 13.86 0 21 0 C21 0.66 21 1.32 21 2 C20.0409375 2.2165625 20.0409375 2.2165625 19.0625 2.4375 C17.02454854 2.81007181 17.02454854 2.81007181 16 4 C17.65 4.66 19.3 5.32 21 6 C20.01 8.31 19.02 10.62 18 13 C11.418607 11.53746822 6.65509829 8.90133774 2 4 C1.34 2.68 0.68 1.36 0 0 Z " fill="#AD0A17" transform="translate(312,302)"/>
<path d="M0 0 C4.83697867 0 5.64517303 0.92682642 9.05078125 4 C12.68959766 7.73361523 15.84645439 11.85534006 19 16 C18.34 16.33 17.68 16.66 17 17 C14.76928711 16.22729492 14.76928711 16.22729492 12.02734375 14.98046875 C11.04572266 14.53509766 10.06410156 14.08972656 9.05273438 13.63085938 C8.02470703 13.15455078 6.99667969 12.67824219 5.9375 12.1875 C4.3896582 11.49043945 4.3896582 11.49043945 2.81054688 10.77929688 C-4.87020922 7.25958156 -4.87020922 7.25958156 -6 5 C-4.68 5 -3.36 5 -2 5 C-2 5.66 -2 6.32 -2 7 C0.31 7.33 2.62 7.66 5 8 C5.66 7.01 6.32 6.02 7 5 C5.81575674 3.58422523 5.81575674 3.58422523 2.4375 3.9375 C0.7359375 3.9684375 0.7359375 3.9684375 -1 4 C-0.67 2.68 -0.34 1.36 0 0 Z " fill="#B71523" transform="translate(629,545)"/>
<path d="M0 0 C4.32773187 2.16386593 5.82836909 9.17436081 7.6875 13.4375 C8.21150391 14.60861328 8.73550781 15.77972656 9.27539062 16.98632812 C9.76587891 18.10330078 10.25636719 19.22027344 10.76171875 20.37109375 C11.21506592 21.40161865 11.66841309 22.43214355 12.13549805 23.49389648 C12.42078369 24.32091064 12.70606934 25.1479248 13 26 C12.67 26.66 12.34 27.32 12 28 C11.443125 27.43152344 10.88625 26.86304688 10.3125 26.27734375 C5.38488906 21.29146714 0.34810981 16.53204946 -5 12 C-3 12 -1 12 1 12 C1 11.34 1 10.68 1 10 C1.66 9.67 2.32 9.34 3 9 C2.01 6.03 1.02 3.06 0 0 Z " fill="#941522" transform="translate(493,531)"/>
<path d="M0 0 C0 4.38968456 -2.12805101 5.76905739 -5 9 C-2.41889311 13.58544817 -2.41889311 13.58544817 2 16 C2 15.34 2 14.68 2 14 C2.474375 13.54625 2.94875 13.0925 3.4375 12.625 C5.23750591 10.75299386 5.42221534 9.47621995 6 7 C6.66 6.67 7.32 6.34 8 6 C8.33 6.66 8.66 7.32 9 8 C9.99 8.33 10.98 8.66 12 9 C10.52278578 12.45201639 8.56205999 14.64961936 5.875 17.25 C5.15054688 17.95640625 4.42609375 18.6628125 3.6796875 19.390625 C3.12539063 19.92171875 2.57109375 20.4528125 2 21 C-1.9252025 17.29909479 -4.94580156 13.45040344 -8 9 C-5.36 6.03 -2.72 3.06 0 0 Z " fill="#E01D2A" transform="translate(652,622)"/>
<path d="M0 0 C6.24675325 6.07792208 6.24675325 6.07792208 8 9 C7.67 9.99 7.34 10.98 7 12 C5.35 11.67 3.7 11.34 2 11 C1.67 11.66 1.34 12.32 1 13 C-0.27875 13.061875 -1.5575 13.12375 -2.875 13.1875 C-3.59429688 13.22230469 -4.31359375 13.25710938 -5.0546875 13.29296875 C-5.69664062 13.19628906 -6.33859375 13.09960938 -7 13 C-7.66 12.01 -8.32 11.02 -9 10 C-8.01 9.34 -7.02 8.68 -6 8 C-5.67 7.34 -5.34 6.68 -5 6 C-4.34 5.67 -3.68 5.34 -3 5 C-2.67 5.66 -2.34 6.32 -2 7 C-1.67 6.34 -1.34 5.68 -1 5 C-0.01 5 0.98 5 2 5 C2 4.34 2 3.68 2 3 C1.34 3 0.68 3 0 3 C0 2.01 0 1.02 0 0 Z " fill="#BD0D1A" transform="translate(671,677)"/>
<path d="M0 0 C2.31 0 4.62 0 7 0 C7 1.32 7 2.64 7 4 C7.66 4 8.32 4 9 4 C9.33 2.68 9.66 1.36 10 0 C10.99 0.33 11.98 0.66 13 1 C11.07346202 5.44585687 8.25078098 6.94789884 4 9 C3.34 8.34 2.68 7.68 2 7 C1.01 7.495 1.01 7.495 0 8 C-0.66 7.67 -1.32 7.34 -2 7 C-2.33 7.99 -2.66 8.98 -3 10 C-3.66 9.67 -4.32 9.34 -5 9 C-4.67 8.34 -4.34 7.68 -4 7 C-4.39938767 4.90178785 -4.39938767 4.90178785 -5 3 C-4.34 2.67 -3.68 2.34 -3 2 C-2.34 2.66 -1.68 3.32 -1 4 C-0.67 2.68 -0.34 1.36 0 0 Z " fill="#B60C19" transform="translate(556,423)"/>
<path d="M0 0 C3.1185662 2.85126053 5.47109168 5.57106804 7.67578125 9.1875 C8.11446533 9.90292969 8.55314941 10.61835937 9.00512695 11.35546875 C9.33343506 11.89816406 9.66174316 12.44085937 10 13 C6.7715237 13.17499733 3.54427074 13.28106618 0.3125 13.375 C-1.05551758 13.45041016 -1.05551758 13.45041016 -2.45117188 13.52734375 C-9.13031568 13.67307052 -9.13031568 13.67307052 -11.76025391 11.63769531 C-13.14453125 9.9765625 -13.14453125 9.9765625 -15 7 C-13.68 6.67 -12.36 6.34 -11 6 C-10.67 7.32 -10.34 8.64 -10 10 C-7.36 10.33 -4.72 10.66 -2 11 C-1.67 10.01 -1.34 9.02 -1 8 C0.65 8.33 2.3 8.66 4 9 C3.71125 8.443125 3.4225 7.88625 3.125 7.3125 C1.9586747 4.91505355 0.9660119 2.48403061 0 0 Z " fill="#C61F2C" transform="translate(674,679)"/>
<path d="M0 0 C1.07765625 0.00902344 2.1553125 0.01804687 3.265625 0.02734375 C4.08546875 0.03894531 4.9053125 0.05054688 5.75 0.0625 C4.9375 2.5 4.9375 2.5 3.75 5.0625 C2.76 5.3925 1.77 5.7225 0.75 6.0625 C0.42 6.7225 0.09 7.3825 -0.25 8.0625 C-0.25 7.4025 -0.25 6.7425 -0.25 6.0625 C-1.24 6.3925 -2.23 6.7225 -3.25 7.0625 C-6.65670513 5.40069262 -8.11889399 4.25915902 -10.25 1.0625 C-6.78777385 -0.00473961 -3.60960734 -0.03923486 0 0 Z " fill="#D8111E" transform="translate(511.25,302.9375)"/>
<path d="M0 0 C0.83265381 0.00523682 1.66530762 0.01047363 2.52319336 0.01586914 C3.42231445 0.0190918 4.32143555 0.02231445 5.24780273 0.02563477 C6.66609375 0.03820312 6.66609375 0.03820312 8.11303711 0.05102539 C9.06243164 0.05553711 10.01182617 0.06004883 10.98999023 0.06469727 C13.34356776 0.07652429 15.69702188 0.09300514 18.05053711 0.11352539 C17.39053711 0.77352539 16.73053711 1.43352539 16.05053711 2.11352539 C13.44897461 2.09008789 13.44897461 2.09008789 10.42553711 1.73852539 C9.42264648 1.62766602 8.41975586 1.51680664 7.38647461 1.40258789 C6.23018555 1.25950195 6.23018555 1.25950195 5.05053711 1.11352539 C5.05053711 1.77352539 5.05053711 2.43352539 5.05053711 3.11352539 C4.06053711 3.11352539 3.07053711 3.11352539 2.05053711 3.11352539 C2.05053711 4.10352539 2.05053711 5.09352539 2.05053711 6.11352539 C0.07053711 7.10352539 0.07053711 7.10352539 -1.94946289 8.11352539 C-1.94946289 7.45352539 -1.94946289 6.79352539 -1.94946289 6.11352539 C-5.57740287 7.97919027 -5.57740287 7.97919027 -7.94946289 11.11352539 C-8.60946289 10.78352539 -9.26946289 10.45352539 -9.94946289 10.11352539 C-8.80447182 8.63370665 -7.65844589 7.15468857 -6.51196289 5.67602539 C-5.55483398 4.44045898 -5.55483398 4.44045898 -4.57836914 3.17993164 C-2.17136971 0.12644795 -2.17136971 0.12644795 0 0 Z " fill="#DE222F" transform="translate(665.949462890625,606.886474609375)"/>
<path d="M0 0 C0.33 0 0.66 0 1 0 C1.98759085 10.61660167 -2.99180177 20.90724666 -8 30 C-9.53515625 28.19921875 -9.53515625 28.19921875 -11 26 C-10.4375 22.8125 -10.4375 22.8125 -9 20 C-6.91015625 19.32421875 -6.91015625 19.32421875 -5 19 C-4.5978125 17.081875 -4.5978125 17.081875 -4.1875 15.125 C-3.0548104 9.99937583 -1.56798699 5.00710512 0 0 Z " fill="#D11927" transform="translate(596,377)"/>
<path d="M0 0 C6.00073223 4.31660302 11.54006063 9.02033308 17 14 C14 14 14 14 11 12 C11.350625 12.5775 11.70125 13.155 12.0625 13.75 C13.16577711 16.39786506 12.80156509 17.33185326 12 20 C11.38511719 19.03578125 10.77023437 18.0715625 10.13671875 17.078125 C9.32039403 15.80203118 8.50398324 14.52599241 7.6875 13.25 C7.28337891 12.61578125 6.87925781 11.9815625 6.46289062 11.328125 C4.78081596 8.70244748 3.1110522 6.1441985 1.20703125 3.671875 C0 2 0 2 0 0 Z " fill="#D31A28" transform="translate(375,382)"/>
<path d="M0 0 C5.23435005 4.27293882 9.67106815 8.81580806 14 14 C13.67 14.66 13.34 15.32 13 16 C11.68 14.68 10.36 13.36 9 12 C8.67 13.65 8.34 15.3 8 17 C6.02 16.01 4.04 15.02 2 14 C2 12.68 2 11.36 2 10 C2.66 9.67 3.32 9.34 4 9 C3.42618522 5.67187429 2.40619252 4.30157545 0 2 C0 1.34 0 0.68 0 0 Z " fill="#B61624" transform="translate(553,453)"/>
<path d="M0 0 C0.99 0.99 1.98 1.98 3 3 C2.67 3.33 2.34 3.66 2 4 C2.9075 4.28875 3.815 4.5775 4.75 4.875 C7.32202908 5.76531776 9.61346766 6.71494413 12 8 C11.34 8 10.68 8 10 8 C9.34 9.32 8.68 10.64 8 12 C3.39137539 10.50897439 0.46669756 8.30545582 -3 5 C-3 4.01 -3 3.02 -3 2 C-2.01 1.34 -1.02 0.68 0 0 Z " fill="#B21421" transform="translate(484,435)"/>
<path d="M0 0 C4.94515667 2.62711448 8.87775489 6.26645294 13 10 C12.34 10.66 11.68 11.32 11 12 C10.5875 11.484375 10.175 10.96875 9.75 10.4375 C9.1725 9.963125 8.595 9.48875 8 9 C5.67511119 9.2818047 4.09107165 9.95446418 2 11 C-0.32590854 7.36576791 -0.16265833 4.22911669 0 0 Z " fill="#B51421" transform="translate(431,429)"/>
<path d="M0 0 C1.32 0 2.64 0 4 0 C4.33 0.66 4.66 1.32 5 2 C5.99 2 6.98 2 8 2 C3.35827355 6.90282356 -1.49280079 11.09489511 -7 15 C-7.66 14.67 -8.32 14.34 -9 14 C-9 13.34 -9 12.68 -9 12 C-8.195625 11.71125 -7.39125 11.4225 -6.5625 11.125 C-3.8673532 10.26737432 -3.8673532 10.26737432 -3 8 C-3.66 7.67 -4.32 7.34 -5 7 C-3.02 5.68 -1.04 4.36 1 3 C0.67 2.01 0.34 1.02 0 0 Z " fill="#C01926" transform="translate(572,416)"/>
<path d="M0 0 C1.32 0.66 2.64 1.32 4 2 C3.34 3.32 2.68 4.64 2 6 C2.495 6.433125 2.99 6.86625 3.5 7.3125 C5 9 5 9 5 12 C1.41087588 12 0.89142971 11.33563446 -1.6875 9 C-2.31011719 8.443125 -2.93273437 7.88625 -3.57421875 7.3125 C-4.04472656 6.879375 -4.51523437 6.44625 -5 6 C-4.67 4.68 -4.34 3.36 -4 2 C-3.01 2 -2.02 2 -1 2 C-0.67 1.34 -0.34 0.68 0 0 Z " fill="#B81221" transform="translate(470,421)"/>
<path d="M0 0 C1.65 1.32 3.3 2.64 5 4 C4.67 4.66 4.34 5.32 4 6 C3.67 5.67 3.34 5.34 3 5 C2.67 5.66 2.34 6.32 2 7 C2.66 7 3.32 7 4 7 C4 7.66 4 8.32 4 9 C1.5 10.625 1.5 10.625 -1 12 C-1.99 11.01 -2.98 10.02 -4 9 C-3.67 8.34 -3.34 7.68 -3 7 C-3.66 6.01 -4.32 5.02 -5 4 C-4.67 3.01 -4.34 2.02 -4 1 C-3.01 1.33 -2.02 1.66 -1 2 C-0.67 1.34 -0.34 0.68 0 0 Z " fill="#C31320" transform="translate(669,673)"/>
<path d="M0 0 C3.03867819 1.34603045 5.00385612 2.80424173 7.234375 5.2578125 C8.09482422 6.19560547 8.09482422 6.19560547 8.97265625 7.15234375 C9.55917969 7.80332031 10.14570312 8.45429687 10.75 9.125 C11.35199219 9.78371094 11.95398438 10.44242188 12.57421875 11.12109375 C14.05480215 12.74268509 15.52977125 14.36902454 17 16 C16.67 16.66 16.34 17.32 16 18 C14.35 17.01 12.7 16.02 11 15 C11 15.66 11 16.32 11 17 C10.34 17 9.68 17 9 17 C8.91363281 16.40832031 8.82726562 15.81664062 8.73828125 15.20703125 C7.76132099 9.71275014 6.64401688 6.51132983 2 3 C1.01 3 0.02 3 -1 3 C-0.67 2.01 -0.34 1.02 0 0 Z " fill="#CB1C2A" transform="translate(652,655)"/>
<path d="M0 0 C2.15377564 2.62198774 3.40072174 4.64404172 4 8 C4.66 8 5.32 8 6 8 C7.06775224 9.96466413 8.06553465 11.96855359 9 14 C8.67 14.66 8.34 15.32 8 16 C6.51476358 14.56877218 5.03699538 13.12979111 3.5625 11.6875 C2.73878906 10.88699219 1.91507812 10.08648438 1.06640625 9.26171875 C-1 7 -1 7 -2 4 C-1.34 3.67 -0.68 3.34 0 3 C0 2.01 0 1.02 0 0 Z " fill="#880F1A" transform="translate(497,543)"/>
<path d="M0 0 C0.66 0.33 1.32 0.66 2 1 C1.67 2.98 1.34 4.96 1 7 C2.32 7.33 3.64 7.66 5 8 C4.62875 8.5775 4.2575 9.155 3.875 9.75 C2.70833333 12 2.70833333 12 3.875 14.25 C4.24625 14.8275 4.6175 15.405 5 16 C2.625 15.0625 2.625 15.0625 0 13 C-1.20875862 10.05887304 -1.90629734 7.18037842 -2 4 C-1.03515625 1.71484375 -1.03515625 1.71484375 0 0 Z " fill="#B3111E" transform="translate(542,430)"/>
<path d="M0 0 C2.31 0 4.62 0 7 0 C6.67 1.32 6.34 2.64 6 4 C6.66 4.33 7.32 4.66 8 5 C7.67 5.66 7.34 6.32 7 7 C6.01 7 5.02 7 4 7 C4 7.66 4 8.32 4 9 C3.01 9.33 2.02 9.66 1 10 C1 8.68 1 7.36 1 6 C1.66 6 2.32 6 3 6 C2.67 4.68 2.34 3.36 2 2 C1.34 2 0.68 2 0 2 C0 1.34 0 0.68 0 0 Z " fill="#B60D1B" transform="translate(488,412)"/>
<path d="M0 0 C0.66 0.33 1.32 0.66 2 1 C0.07010782 2.19982444 -1.86919228 3.38452818 -3.8125 4.5625 C-5.43091797 5.55443359 -5.43091797 5.55443359 -7.08203125 6.56640625 C-10 8 -10 8 -13 7 C-11.02 6.34 -9.04 5.68 -7 5 C-7 3.02 -7 1.04 -7 -1 C-3.51418144 -2.2020064 -3.32007656 -2.21338437 0 0 Z " fill="#BD1927" transform="translate(561,431)"/>
<path d="M0 0 C3.63491543 1.21163848 3.95246215 2.10771062 5.75 5.375 C6.19859375 6.16648437 6.6471875 6.95796875 7.109375 7.7734375 C8 10 8 10 7 13 C4 7.25 4 7.25 4 5 C1.69 5.33 -0.62 5.66 -3 6 C-3 6.66 -3 7.32 -3 8 C-3.66 8 -4.32 8 -5 8 C-4.67 6.35 -4.34 4.7 -4 3 C-3.01 2.67 -2.02 2.34 -1 2 C-0.67 1.34 -0.34 0.68 0 0 Z " fill="#A91422" transform="translate(460,460)"/>
<path d="M0 0 C0.99 0.33 1.98 0.66 3 1 C2.01 1 1.02 1 0 1 C0 0.67 0 0.34 0 0 Z M-4 1 C-2.68 1.33 -1.36 1.66 0 2 C-0.66 2.66 -1.32 3.32 -2 4 C-2 4.66 -2 5.32 -2 6 C-1.34 6 -0.68 6 0 6 C-0.33 7.32 -0.66 8.64 -1 10 C-2.32 10 -3.64 10 -5 10 C-5.33 9.34 -5.66 8.68 -6 8 C-6.99 8.495 -6.99 8.495 -8 9 C-6.66666667 6.33333333 -5.33333333 3.66666667 -4 1 Z " fill="#CE1624" transform="translate(562,379)"/>
<path d="M0 0 C1.9375 0.3125 1.9375 0.3125 4 1 C4.33 1.99 4.66 2.98 5 4 C4.01 5.485 4.01 5.485 3 7 C3.99 8.32 4.98 9.64 6 11 C3.00779732 9.63629701 0.70973471 8.05091917 -1.75 5.875 C-2.36359375 5.33617187 -2.9771875 4.79734375 -3.609375 4.2421875 C-4.06828125 3.83226562 -4.5271875 3.42234375 -5 3 C-4.360625 2.87625 -3.72125 2.7525 -3.0625 2.625 C-2.0415625 2.315625 -2.0415625 2.315625 -1 2 C-0.67 1.34 -0.34 0.68 0 0 Z " fill="#CA1B28" transform="translate(407,373)"/>
<path d="M0 0 C1.32 0.66 2.64 1.32 4 2 C3.01 3.98 2.02 5.96 1 8 C-7.2173913 6.17391304 -7.2173913 6.17391304 -10 2 C-9.4225 2.309375 -8.845 2.61875 -8.25 2.9375 C-6.15705816 3.92583364 -4.25464725 4.5168613 -2 5 C-1.34 3.35 -0.68 1.7 0 0 Z " fill="#B3121F" transform="translate(329,307)"/>
<path d="M0 0 C4.94515667 2.62711448 8.87775489 6.26645294 13 10 C12.34 10.66 11.68 11.32 11 12 C10.4225 11.38125 9.845 10.7625 9.25 10.125 C7.19750179 8.18652947 5.56633418 7.09985751 3 6 C2.67 6.66 2.34 7.32 2 8 C0 2.25 0 2.25 0 0 Z " fill="#CB1B29" transform="translate(397,401)"/>
<path d="M0 0 C0.66 0.99 1.32 1.98 2 3 C0.95125002 5.62187494 0.35068687 6.79371361 -2.125 8.25 C-2.74375 8.4975 -3.3625 8.745 -4 9 C-3.01 9.66 -2.02 10.32 -1 11 C-1.66 11.66 -2.32 12.32 -3 13 C-4.5625 11.75 -4.5625 11.75 -6 10 C-6 5.82037532 -2.61199886 2.94687051 0 0 Z " fill="#C71927" transform="translate(650,658)"/>
<path d="M0 0 C0 0.99 0 1.98 0 3 C0.63514826 5.34210921 1.2986716 7.67684969 2 10 C-0.99220268 8.63629701 -3.29026529 7.05091917 -5.75 4.875 C-6.36359375 4.33617187 -6.9771875 3.79734375 -7.609375 3.2421875 C-8.06828125 2.83226562 -8.5271875 2.42234375 -9 2 C-7 2 -5 2 -3 2 C-2.01 1.34 -1.02 0.68 0 0 Z " fill="#AF1623" transform="translate(522,463)"/>
<path d="M0 0 C2.31 0.33 4.62 0.66 7 1 C7.33 2.65 7.66 4.3 8 6 C6.35 6.33 4.7 6.66 3 7 C2.34 6.01 1.68 5.02 1 4 C0.01 3.34 -0.98 2.68 -2 2 C-1.34 2 -0.68 2 0 2 C0 1.34 0 0.68 0 0 Z " fill="#E7111F" transform="translate(552,306)"/>
<path d="M0 0 C0.99 1.32 1.98 2.64 3 4 C4.65 3.67 6.3 3.34 8 3 C8 3.99 8 4.98 8 6 C7.01 6.495 7.01 6.495 6 7 C6.33 7.66 6.66 8.32 7 9 C6.34 9.66 5.68 10.32 5 11 C3.96680187 9.7391988 2.94875621 8.46596742 1.9375 7.1875 C1.08478516 6.12595703 1.08478516 6.12595703 0.21484375 5.04296875 C-0.18605469 4.36878906 -0.58695312 3.69460938 -1 3 C-0.67 2.01 -0.34 1.02 0 0 Z " fill="#8F0713" transform="translate(454,505)"/>
<path d="M0 0 C0.33 0 0.66 0 1 0 C1.97299156 4.85729645 2.12038805 9.4500625 2.0625 14.375 C2.05798828 15.11105469 2.05347656 15.84710938 2.04882812 16.60546875 C2.03715142 18.40368158 2.01922011 20.20185197 2 22 C1.67 22 1.34 22 1 22 C0.92652344 20.948125 0.92652344 20.948125 0.8515625 19.875 C0.48991665 15.2858389 0.09435553 10.93273914 -1.1875 6.5 C-1.455625 5.345 -1.72375 4.19 -2 3 C-1.34 2.01 -0.68 1.02 0 0 Z " fill="#E0222E" transform="translate(596,354)"/>
<path d="M0 0 C3 1 3 1 4 3 C4.66 3.268125 5.32 3.53625 6 3.8125 C8 5 8 5 8.75 7.625 C8.87375 8.800625 8.87375 8.800625 9 10 C5.05860922 8.33248852 2.2107188 5.77289351 -1 3 C-0.67 2.01 -0.34 1.02 0 0 Z " fill="#C31725" transform="translate(349,330)"/>
<path d="M0 0 C2.475 0.99 2.475 0.99 5 2 C5.66 1.34 6.32 0.68 7 0 C7 0.99 7 1.98 7 3 C7.99 3 8.98 3 10 3 C10 4.65 10 6.3 10 8 C6.05205855 6.32971708 3.18203882 3.8204435 0 1 C0 0.67 0 0.34 0 0 Z M10 1 C10.66 1 11.32 1 12 1 C12 1.66 12 2.32 12 3 C11.34 3 10.68 3 10 3 C10 2.34 10 1.68 10 1 Z " fill="#CB1B2A" transform="translate(372,351)"/>
<path d="M0 0 C3.75730247 1.6281644 6.616823 4.01401917 9.75 6.625 C11.22726562 7.85089844 11.22726562 7.85089844 12.734375 9.1015625 C13.85585938 10.04128906 13.85585938 10.04128906 15 11 C11.25 12.125 11.25 12.125 9 11 C8.525625 10.175 8.05125 9.35 7.5625 8.5 C6.18680459 5.70844517 6.18680459 5.70844517 3 5 C1.3125 2.4375 1.3125 2.4375 0 0 Z " fill="#DF2231" transform="translate(399,339)"/>
<path d="M0 0 C0.99 0.33 1.98 0.66 3 1 C2.34 1.66 1.68 2.32 1 3 C0.34 3 -0.32 3 -1 3 C-0.67 2.01 -0.34 1.02 0 0 Z M-3 2 C-0.08511023 4.6234008 1.88503898 7.71816394 4 11 C0.05860922 9.33248852 -2.7892812 6.77289351 -6 4 C-5.01 3.34 -4.02 2.68 -3 2 Z " fill="#B51927" transform="translate(576,506)"/>
<path d="M0 0 C0.33 0 0.66 0 1 0 C1.40214229 6.16618181 -0.03181664 11.17745757 -2 17 C-2.66 17 -3.32 17 -4 17 C-3.35729017 11.0870696 -1.80996216 5.65755469 0 0 Z " fill="#DB202E" transform="translate(596,377)"/>
<path d="M0 0 C0.99 0 1.98 0 3 0 C3 0.99 3 1.98 3 3 C3.66 3.33 4.32 3.66 5 4 C4.34 4 3.68 4 3 4 C3 4.66 3 5.32 3 6 C3.99 6.33 4.98 6.66 6 7 C6 8.65 6 10.3 6 12 C3.37591634 9.62582907 1.61386598 7.15088121 0 4 C0 2.68 0 1.36 0 0 Z " fill="#A21320" transform="translate(432,472)"/>
<path d="M0 0 C0.99 0.33 1.98 0.66 3 1 C3.6875 3.0625 3.6875 3.0625 4 5 C3.01 5.495 3.01 5.495 2 6 C2.66 7.65 3.32 9.3 4 11 C-0.875 6.375 -0.875 6.375 -2 3 C-1.34 2.01 -0.68 1.02 0 0 Z " fill="#C81925" transform="translate(655,674)"/>
<path d="M0 0 C3.32637022 2.69277589 4.58473125 6.03724749 6 10 C5.67 10.99 5.34 11.98 5 13 C4.34 12.34 3.68 11.68 3 11 C2.34 11 1.68 11 1 11 C1.020625 9.9275 1.04125 8.855 1.0625 7.75 C1.0142016 4.85209576 0.86844115 2.71387859 0 0 Z " fill="#E2212E" transform="translate(588,334)"/>
<path d="M0 0 C4 0 4 0 7 1 C7.66 1.66 8.32 2.32 9 3 C8.34 3 7.68 3 7 3 C7.99 4.65 8.98 6.3 10 8 C6.05205855 6.32971708 3.18203882 3.8204435 0 1 C0 0.67 0 0.34 0 0 Z " fill="#B91C28" transform="translate(499,453)"/>
<path d="M0 0 C0.66 0 1.32 0 2 0 C2.6875 2.8125 2.6875 2.8125 3 6 C1.5625 7.875 1.5625 7.875 0 9 C-1.125 7.3125 -1.125 7.3125 -2 5 C-1.125 2.25 -1.125 2.25 0 0 Z " fill="#DB101E" transform="translate(593,358)"/>
<path d="M0 0 C2.125 0.9375 2.125 0.9375 4 2 C3.67 4.31 3.34 6.62 3 9 C0.27573689 6.64722731 -0.8141763 4.37503669 -2 1 C-1.34 0.67 -0.68 0.34 0 0 Z " fill="#AB1522" transform="translate(423,455)"/>
<path d="M0 0 C2.5 2.3125 2.5 2.3125 5 5 C5 5.99 5 6.98 5 8 C2.66666667 8 0.33333333 8 -2 8 C-1 6 -1 6 2 4 C1.34 2.68 0.68 1.36 0 0 Z " fill="#DE202D" transform="translate(580,323)"/>
<path d="M0 0 C1.32 0.33 2.64 0.66 4 1 C1.69 3.64 -0.62 6.28 -3 9 C-3.66 8.67 -4.32 8.34 -5 8 C-5 7.34 -5 6.68 -5 6 C-4.360625 5.7525 -3.72125 5.505 -3.0625 5.25 C-0.81258459 4.18437567 -0.81258459 4.18437567 -0.25 1.875 C-0.1675 1.25625 -0.085 0.6375 0 0 Z " fill="#E62030" transform="translate(672,618)"/>
<path d="M0 0 C3.63094642 2.64960955 5.89851796 5.01824456 8 9 C2.25 7.25 2.25 7.25 0 5 C0.66 4.67 1.32 4.34 2 4 C1.34 2.68 0.68 1.36 0 0 Z " fill="#C12633" transform="translate(640,553)"/>
<path d="M0 0 C1.29608947 0.93137592 2.58671632 1.8703566 3.875 2.8125 C4.59429687 3.33457031 5.31359375 3.85664063 6.0546875 4.39453125 C8 6 8 6 10 9 C6 9 6 9 4.4375 7.75 C0 2.34782609 0 2.34782609 0 0 Z " fill="#D22A3B" transform="translate(375,382)"/>
<path d="M0 0 C2.97 0.99 5.94 1.98 9 3 C9 4.32 9 5.64 9 7 C5.18315774 5.44499019 2.80804268 2.96404505 0 0 Z " fill="#CB1E2A" transform="translate(363,344)"/>
<path d="M0 0 C1.15224028 0.92961422 2.29659176 1.8690125 3.4375 2.8125 C4.07558594 3.33457031 4.71367188 3.85664063 5.37109375 4.39453125 C7 6 7 6 8 9 C7.01 9.495 7.01 9.495 6 10 C5.5875 9.195625 5.175 8.39125 4.75 7.5625 C3.26547669 4.85890282 3.26547669 4.85890282 0.8125 4.1875 C0.214375 4.125625 -0.38375 4.06375 -1 4 C-0.67 2.68 -0.34 1.36 0 0 Z " fill="#BD1C2B" transform="translate(587,492)"/>
<path d="M0 0 C2.31 0.33 4.62 0.66 7 1 C7.66 2.98 8.32 4.96 9 7 C5.18315774 5.44499019 2.80804268 2.96404505 0 0 Z " fill="#B51C29" transform="translate(524,473)"/>
<path d="M0 0 C0.86625 0.556875 0.86625 0.556875 1.75 1.125 C1.09 1.125 0.43 1.125 -0.25 1.125 C-0.91 2.445 -1.57 3.765 -2.25 5.125 C-3.57 3.805 -4.89 2.485 -6.25 1.125 C-2.80384615 -1.09038462 -2.80384615 -1.09038462 0 0 Z " fill="#B10C19" transform="translate(494.25,441.875)"/>
<path d="M0 0 C3.14624993 -0.26218749 4.61837017 -0.24754367 7.3125 1.5 C8.1478125 2.2425 8.1478125 2.2425 9 3 C8.67 3.66 8.34 4.32 8 5 C5.36 4.01 2.72 3.02 0 2 C0 1.34 0 0.68 0 0 Z " fill="#E41626" transform="translate(539,337)"/>
<path d="M0 0 C2.31 1.98 4.62 3.96 7 6 C6.67 6.66 6.34 7.32 6 8 C5.2575 7.319375 4.515 6.63875 3.75 5.9375 C1.24050936 3.71646324 1.24050936 3.71646324 -1.3125 4.25 C-1.869375 4.4975 -2.42625 4.745 -3 5 C-2.34 4.67 -1.68 4.34 -1 4 C-0.67 2.68 -0.34 1.36 0 0 Z " fill="#BE1C2B" transform="translate(574,477)"/>
<path d="M0 0 C0.66 0.66 1.32 1.32 2 2 C1.67 2.99 1.34 3.98 1 5 C0.34 4.67 -0.32 4.34 -1 4 C-1 4.66 -1 5.32 -1 6 C-1.99 5.67 -2.98 5.34 -4 5 C-2.68 3.35 -1.36 1.7 0 0 Z M2 0 C2.66 0 3.32 0 4 0 C3.67 0.66 3.34 1.32 3 2 C2.67 1.34 2.34 0.68 2 0 Z " fill="#C00C19" transform="translate(413,375)"/>
<path d="M0 0 C0.66 0.33 1.32 0.66 2 1 C0.60667426 4.36720387 -0.9789286 5.9859524 -4 8 C-4 4.09161134 -2.49432124 2.88405893 0 0 Z " fill="#111111" transform="translate(628,673)"/>
<path d="M0 0 C1.98 1.65 3.96 3.3 6 5 C5.67 5.66 5.34 6.32 5 7 C3.68 6.01 2.36 5.02 1 4 C0.34 4.66 -0.32 5.32 -1 6 C-1 2 -1 2 0 0 Z " fill="#BE1C29" transform="translate(547,446)"/>
<path d="M0 0 C2.70931419 0.15481795 4.46584039 0.48172081 6.4453125 2.40234375 C7.67679642 3.89771708 8.8429837 5.4462924 10 7 C7.625 6.75 7.625 6.75 5 6 C3.875 4.0625 3.875 4.0625 3 2 C2.01 1.34 1.02 0.68 0 0 Z " fill="#E82332" transform="translate(570,316)"/>
<path d="M0 0 C2.31 0 4.62 0 7 0 C6.67 0.66 6.34 1.32 6 2 C5.01 2.33 4.02 2.66 3 3 C3.99 4.485 3.99 4.485 5 6 C3.0625 5.25 3.0625 5.25 1 4 C0.25 1.875 0.25 1.875 0 0 Z " fill="#B31623" transform="translate(314,303)"/>
<path d="M0 0 C0.66 0 1.32 0 2 0 C1.6875 2.375 1.6875 2.375 1 5 C0.01 5.66 -0.98 6.32 -2 7 C-2.66 6.34 -3.32 5.68 -4 5 C-3.34 5 -2.68 5 -2 5 C-1.34 3.35 -0.68 1.7 0 0 Z " fill="#B00C19" transform="translate(527,427)"/>
<path d="M0 0 C0.66 0.33 1.32 0.66 2 1 C-2.625 6.875 -2.625 6.875 -6 8 C-5.65120368 4.74456771 -4.97866739 3.98126893 -2.4375 1.75 C-1.633125 1.1725 -0.82875 0.595 0 0 Z " fill="#C71A2A" transform="translate(536,404)"/>
<path d="M0 0 C0.99 0.33 1.98 0.66 3 1 C3 1.66 3 2.32 3 3 C4.32 3.33 5.64 3.66 7 4 C6.01 5.485 6.01 5.485 5 7 C3.29115995 5.37660195 1.62553283 3.70680947 0 2 C0 1.34 0 0.68 0 0 Z " fill="#DC0C1A" transform="translate(549,341)"/>
<path d="M0 0 C1.98 0 3.96 0 6 0 C5.67 0.66 5.34 1.32 5 2 C4.34 2 3.68 2 3 2 C2.01 3.485 2.01 3.485 1 5 C0.34 5 -0.32 5 -1 5 C-0.67 3.35 -0.34 1.7 0 0 Z " fill="#DD111E" transform="translate(525,303)"/>
<path d="M0 0 C0.99 0.33 1.98 0.66 3 1 C2.67 2.65 2.34 4.3 2 6 C0 4.625 0 4.625 -2 3 C-2 2.34 -2 1.68 -2 1 C-1.34 0.67 -0.68 0.34 0 0 Z " fill="#C61A28" transform="translate(650,670)"/>
<path d="M0 0 C0.66 0 1.32 0 2 0 C2.66 1.65 3.32 3.3 4 5 C3.34 5 2.68 5 2 5 C1.67 5.66 1.34 6.32 1 7 C0 6 0 6 -0.0625 2.9375 C-0.041875 1.968125 -0.02125 0.99875 0 0 Z " fill="#AD1320" transform="translate(413,439)"/>
<path d="M0 0 C0.66666667 2.66666667 1.33333333 5.33333333 2 8 C0.35 6.68 -1.3 5.36 -3 4 C-2.01 2.68 -1.02 1.36 0 0 Z " fill="#D41928" transform="translate(553,388)"/>
</svg>
